<?xml version="1.0" encoding="UTF-8"?>
<!DOCTYPE svg PUBLIC "-//W3C//DTD SVG 1.1//EN" "http://www.w3.org/Graphics/SVG/1.1/DTD/svg11.dtd">
<svg xmlns="http://www.w3.org/2000/svg" version="1.1" width="487px" height="211px" style="shape-rendering:geometricPrecision; text-rendering:geometricPrecision; image-rendering:optimizeQuality; fill-rule:evenodd; clip-rule:evenodd" xmlns:xlink="http://www.w3.org/1999/xlink">
<g><path style="opacity:0.052" fill="#000000" d="M 182.5,57.5 C 187.196,57.6706 191.863,58.1706 196.5,59C 200.607,62.0726 204.607,65.2393 208.5,68.5C 212.161,66.3356 215.828,64.1689 219.5,62C 229.688,57.7501 238.855,59.2501 247,66.5C 249.704,71.1249 251.038,76.1249 251,81.5C 253.881,83.0283 256.214,82.3616 258,79.5C 260.642,73.5285 264.476,68.3619 269.5,64C 283.59,56.2546 295.59,58.588 305.5,71C 310.5,71.3333 315.5,71.6667 320.5,72C 324.923,73.9429 328.923,76.4429 332.5,79.5C 336.823,77.1019 341.156,74.6019 345.5,72C 349.167,71.3333 352.833,71.3333 356.5,72C 360.986,76.0783 365.986,79.4117 371.5,82C 377.055,81.9869 382.388,82.9869 387.5,85C 391.036,88.2012 394.203,91.7012 397,95.5C 399.873,106.716 398.873,117.382 394,127.5C 392.5,129 391,130.5 389.5,132C 386.285,132.274 383.619,133.607 381.5,136C 363.248,138.124 345.081,137.957 327,135.5C 313.766,137.063 300.433,138.063 287,138.5C 253.32,137.612 219.653,137.278 186,137.5C 179.732,139.22 173.398,140.553 167,141.5C 164.833,141.333 162.667,141.167 160.5,141C 155.851,138.685 151.018,136.852 146,135.5C 139.945,137.211 133.778,138.211 127.5,138.5C 116.182,137.997 104.849,137.831 93.5,138C 91.2115,137.178 88.8782,136.511 86.5,136C 84.3349,132.853 82.1682,129.686 80,126.5C 78.2874,110.923 82.6207,97.2565 93,85.5C 93.3333,84.1667 93.6667,82.8333 94,81.5C 98.2523,77.9187 101.752,73.752 104.5,69C 105.448,68.5172 106.448,68.3505 107.5,68.5C 107.281,67.325 107.614,66.325 108.5,65.5C 118.892,59.3369 128.392,60.3369 137,68.5C 137.113,70.9739 138.113,72.9739 140,74.5C 139.127,80.0693 141.293,83.7359 146.5,85.5C 152.281,82.2223 156.447,77.5556 159,71.5C 160.833,69.6667 162.667,67.8333 164.5,66C 170.55,62.9867 176.55,60.1534 182.5,57.5 Z"/></g>
<g><path style="opacity:0.941" fill="#3e3e3e" d="M 174.5,65.5 C 181.849,64.1884 184.683,67.1884 183,74.5C 181.292,79.4121 178.458,83.5788 174.5,87C 171.097,87.7672 170.097,86.6006 171.5,83.5C 176.086,80.5021 179.086,76.3354 180.5,71C 180.387,69.7202 179.72,68.8869 178.5,68.5C 167.995,75.5125 160.161,84.8459 155,96.5C 152.923,101.153 152.589,105.82 154,110.5C 155.085,111.293 156.252,111.96 157.5,112.5C 164.913,109.53 170.247,104.363 173.5,97C 174.6,96.5683 175.267,97.0683 175.5,98.5C 172.832,105.006 168.499,110.173 162.5,114C 153.571,117.872 148.571,115.039 147.5,105.5C 151.78,88.9031 160.78,75.5698 174.5,65.5 Z"/></g>
<g><path style="opacity:0.953" fill="#3e3e3e" d="M 219.5,66.5 C 225.053,66.2758 226.553,68.6091 224,73.5C 218.896,83.6133 211.896,92.2799 203,99.5C 201.115,101.914 200.448,104.581 201,107.5C 203.54,105.295 205.707,102.795 207.5,100C 208.5,99.3333 209.5,99.3333 210.5,100C 208.812,104.375 206.145,108.042 202.5,111C 198.798,112.393 196.798,111.226 196.5,107.5C 200.819,91.852 208.486,78.1853 219.5,66.5 Z"/></g>
<g><path style="opacity:0.933" fill="#3e3e3e" d="M 274.5,66.5 C 277.261,65.9147 278.927,66.9147 279.5,69.5C 274.579,81.6053 267.079,91.9386 257,100.5C 255.627,102.695 255.294,105.029 256,107.5C 258.316,105.53 260.149,103.196 261.5,100.5C 262.5,99.1667 263.5,99.1667 264.5,100.5C 263.169,103.834 261.335,106.834 259,109.5C 250.859,113.36 248.525,111.026 252,102.5C 256.993,88.7279 264.493,76.7279 274.5,66.5 Z"/></g>
<g><path style="opacity:0.93" fill="#3f3f3f" d="M 111.5,67.5 C 113.103,67.3118 114.437,67.8118 115.5,69C 110,76.5 104.5,84 99,91.5C 95.6792,96.4736 93.1792,101.807 91.5,107.5C 96.3909,106.097 101.391,105.43 106.5,105.5C 106.67,106.822 106.337,107.989 105.5,109C 100.596,109.579 95.9295,110.912 91.5,113C 88.1379,114.293 86.1379,113.293 85.5,110C 91.9512,94.403 100.618,80.2364 111.5,67.5 Z"/></g>
<g><path style="opacity:0.032" fill="#000000" d="M 219.5,70.5 C 220.097,70.7352 220.43,71.2352 220.5,72C 217.701,79.1004 213.534,85.2671 208,90.5C 210.278,83.0279 214.111,76.3613 219.5,70.5 Z"/></g>
<g><path style="opacity:0.029" fill="#000000" d="M 274.5,70.5 C 275.043,70.56 275.376,70.8933 275.5,71.5C 271.979,78.8496 267.479,85.5163 262,91.5C 264.591,83.6657 268.758,76.6657 274.5,70.5 Z"/></g>
<g><path style="opacity:0.967" fill="#3e3e3e" d="M 302.5,76.5 C 304.103,76.3118 305.437,76.8118 306.5,78C 301.97,82.3812 302.97,84.2145 309.5,83.5C 309.5,84.5 309.5,85.5 309.5,86.5C 304.245,86.5148 300.078,88.5148 297,92.5C 293.627,97.0901 292.461,102.09 293.5,107.5C 296.392,104.729 299.058,101.729 301.5,98.5C 302.308,98.8076 302.975,99.3076 303.5,100C 301.196,104.297 298.196,107.964 294.5,111C 290.492,112.416 288.159,111.082 287.5,107C 288.534,101.436 290.534,96.2696 293.5,91.5C 292.675,90.6143 291.675,90.281 290.5,90.5C 290.281,89.325 290.614,88.325 291.5,87.5C 296.761,85.573 300.427,81.9063 302.5,76.5 Z"/></g>
<g><path style="opacity:0.852" fill="#3f3f3f" d="M 340.5,77.5 C 341.833,77.5 343.167,77.5 344.5,77.5C 344.005,82.0188 341.671,83.6855 337.5,82.5C 338.26,80.6396 339.26,78.973 340.5,77.5 Z"/></g>
<g><path style="opacity:1" fill="#3e3e3e" d="M 120.5,88.5 C 123.604,87.9711 125.937,88.9711 127.5,91.5C 126.189,96.0687 124.855,100.902 123.5,106C 123.682,108.343 124.682,110.176 126.5,111.5C 122.655,114.566 120.155,113.566 119,108.5C 117.093,112.01 114.26,113.176 110.5,112C 108.991,102.177 112.324,94.3441 120.5,88.5 Z"/></g>
<g><path style="opacity:1" fill="#3e3e3e" d="M 188.5,88.5 C 191.604,87.9711 193.937,88.9711 195.5,91.5C 194.189,96.0687 192.855,100.902 191.5,106C 191.682,108.343 192.682,110.176 194.5,111.5C 190.655,114.566 188.155,113.566 187,108.5C 185.093,112.01 182.26,113.176 178.5,112C 176.991,102.177 180.324,94.3441 188.5,88.5 Z"/></g>
<g><path style="opacity:1" fill="#3d3d3d" d="M 277.5,88.5 C 284.065,87.422 286.232,90.0886 284,96.5C 282.239,99.4493 281.072,102.616 280.5,106C 281.748,108.41 282.748,110.91 283.5,113.5C 279.818,114.275 277.318,112.941 276,109.5C 273.294,112.978 270.294,113.311 267,110.5C 267.02,101.462 270.52,94.1285 277.5,88.5 Z"/></g>
<g><path style="opacity:1" fill="#3d3d3d" d="M 222.5,89.5 C 225.288,89.0769 227.288,90.0769 228.5,92.5C 227.764,94.5405 226.931,96.5405 226,98.5C 224.89,100.037 223.39,100.703 221.5,100.5C 221.585,98.0712 222.585,96.0712 224.5,94.5C 224.333,94.1667 224.167,93.8333 224,93.5C 219.545,96.8031 216.378,101.136 214.5,106.5C 215.167,107.833 216.167,108.833 217.5,109.5C 221.274,107.229 224.607,104.396 227.5,101C 228.483,100.409 229.15,100.743 229.5,102C 226.014,109.173 220.347,112.506 212.5,112C 209.896,106.418 210.73,101.252 215,96.5C 217.396,93.9334 219.896,91.6 222.5,89.5 Z"/></g>
<g><path style="opacity:0.998" fill="#3d3d3d" d="M 321.5,89.5 C 322.5,89.5 323.5,89.5 324.5,89.5C 323.909,92.6136 322.242,95.1136 319.5,97C 322.269,97.2102 324.769,96.3769 327,94.5C 327.123,98.063 325.29,100.23 321.5,101C 319.527,101.495 317.527,101.662 315.5,101.5C 315.649,100.448 315.483,99.448 315,98.5C 310.891,102.61 307.557,107.277 305,112.5C 303.989,113.337 302.822,113.67 301.5,113.5C 303.165,105.004 306.832,97.5039 312.5,91C 313.448,90.5172 314.448,90.3505 315.5,90.5C 315.351,91.552 315.517,92.552 316,93.5C 318.015,92.3034 319.849,90.9701 321.5,89.5 Z"/></g>
<g><path style="opacity:0.988" fill="#3d3d3d" d="M 346.5,89.5 C 349.288,89.0769 351.288,90.0769 352.5,92.5C 351.764,94.5405 350.931,96.5405 350,98.5C 348.89,100.037 347.39,100.703 345.5,100.5C 345.585,98.0712 346.585,96.0712 348.5,94.5C 348.333,94.1667 348.167,93.8333 348,93.5C 343.545,96.8031 340.378,101.136 338.5,106.5C 339.167,107.833 340.167,108.833 341.5,109.5C 345.274,107.229 348.607,104.396 351.5,101C 352.483,100.409 353.15,100.743 353.5,102C 350.014,109.173 344.347,112.506 336.5,112C 333.896,106.418 334.73,101.252 339,96.5C 341.396,93.9334 343.896,91.6 346.5,89.5 Z"/></g>
<g><path style="opacity:0.987" fill="#3d3d3d" d="M 365.5,89.5 C 370.123,88.4082 371.956,90.0748 371,94.5C 368.968,99.3648 365.468,102.698 360.5,104.5C 359.56,107.052 360.56,107.886 363.5,107C 367.072,105.431 370.072,103.098 372.5,100C 373.635,99.2506 374.635,99.4173 375.5,100.5C 371.508,107.698 365.508,111.198 357.5,111C 354.713,108.833 353.88,105.999 355,102.5C 357.257,97.0846 360.757,92.7513 365.5,89.5 Z"/></g>
<g><path style="opacity:0.986" fill="#3e3e3e" d="M 334.5,90.5 C 335.675,90.281 336.675,90.6143 337.5,91.5C 333.364,98.1051 330.031,105.105 327.5,112.5C 326.675,113.386 325.675,113.719 324.5,113.5C 325.387,104.731 328.72,97.0638 334.5,90.5 Z"/></g>
<g><path style="opacity:0.988" fill="#3e3e3e" d="M 239.5,91.5 C 240.5,91.5 241.5,91.5 242.5,91.5C 240.632,95.5627 238.465,99.5627 236,103.5C 235.333,104.833 235.333,106.167 236,107.5C 239.997,103.513 242.997,98.8464 245,93.5C 246.88,92.0705 248.38,92.4038 249.5,94.5C 247.454,97.7535 246.121,101.253 245.5,105C 246.575,107.51 247.575,110.01 248.5,112.5C 244.27,113.437 241.77,111.771 241,107.5C 238.83,111.26 235.83,112.26 232,110.5C 231.149,102.865 233.649,96.5318 239.5,91.5 Z"/></g>
<g><path style="opacity:0.082" fill="#000000" d="M 121.5,92.5 C 122.478,92.811 123.145,93.4777 123.5,94.5C 121.285,99.706 118.285,104.373 114.5,108.5C 113.533,101.764 115.866,96.4305 121.5,92.5 Z"/></g>
<g><path style="opacity:0.083" fill="#000000" d="M 189.5,92.5 C 190.478,92.811 191.145,93.4777 191.5,94.5C 189.285,99.706 186.285,104.373 182.5,108.5C 181.533,101.764 183.866,96.4305 189.5,92.5 Z"/></g>
<g><path style="opacity:0.136" fill="#000000" d="M 278.5,92.5 C 279.756,92.4614 280.756,92.9614 281.5,94C 279.216,99.3984 276.049,104.232 272,108.5C 270.368,106.293 270.368,103.96 272,101.5C 273.611,98.0624 275.777,95.0624 278.5,92.5 Z"/></g>
<g><path style="opacity:0.068" fill="#000000" d="M 366.5,93.5 C 367.525,93.8966 367.692,94.5632 367,95.5C 365.26,97.9535 363.093,99.4535 360.5,100C 362.027,97.3098 364.027,95.1432 366.5,93.5 Z"/></g>
</svg>
