<?xml version="1.0" encoding="UTF-8"?>
<!DOCTYPE svg PUBLIC "-//W3C//DTD SVG 1.1//EN" "http://www.w3.org/Graphics/SVG/1.1/DTD/svg11.dtd">
<svg xmlns="http://www.w3.org/2000/svg" version="1.1" width="1070px" height="1361px" style="shape-rendering:geometricPrecision; text-rendering:geometricPrecision; image-rendering:optimizeQuality; fill-rule:evenodd; clip-rule:evenodd" xmlns:xlink="http://www.w3.org/1999/xlink">
<g><path style="opacity:0.976" fill="#404040" d="M 164.5,-0.5 C 191.5,-0.5 218.5,-0.5 245.5,-0.5C 286.82,2.62106 328.32,5.28773 370,7.5C 405.989,6.08063 441.989,5.08063 478,4.5C 534.668,6.08336 591.334,7.75002 648,9.5C 693.58,8.49434 739.08,5.99434 784.5,2C 845.928,-0.788271 907.261,0.545062 968.5,6C 997.288,11.473 1021.79,24.6397 1042,45.5C 1053.04,59.5884 1059.7,75.5884 1062,93.5C 1063.52,113.473 1064.52,133.473 1065,153.5C 1067.16,234.277 1065.16,314.944 1059,395.5C 1056.75,435.858 1057.08,476.192 1060,516.5C 1063.47,542.085 1066.14,567.752 1068,593.5C 1068.67,616.833 1068.67,640.167 1068,663.5C 1064,713.27 1061.17,763.103 1059.5,813C 1061.62,905.509 1064.12,998.009 1067,1090.5C 1067.67,1126.17 1067.67,1161.83 1067,1197.5C 1066.47,1217.13 1064.97,1236.63 1062.5,1256C 1065.29,1274.37 1061.79,1291.54 1052,1307.5C 1034.74,1334.23 1010.24,1350.07 978.5,1355C 925.994,1355.48 873.494,1356.31 821,1357.5C 792.473,1357.31 763.973,1356.31 735.5,1354.5C 692.832,1356.17 650.165,1357.83 607.5,1359.5C 597.507,1358.87 587.507,1358.37 577.5,1358C 540.398,1352.14 503.064,1349.64 465.5,1350.5C 443.155,1350.52 420.822,1351.02 398.5,1352C 357.071,1355.72 315.737,1358.56 274.5,1360.5C 243.167,1360.5 211.833,1360.5 180.5,1360.5C 156.048,1359.62 131.548,1357.96 107,1355.5C 84.6364,1359.38 64.8031,1353.88 47.5,1339C 25.5258,1318.56 12.3591,1293.39 8,1263.5C 6.89691,1211.5 6.06358,1159.5 5.5,1107.5C 5.70908,1064.32 6.70908,1021.15 8.5,978C 7.21989,931.331 5.88656,884.664 4.5,838C 4.66667,827.833 4.83333,817.667 5,807.5C 6.96025,787.858 8.62692,768.191 10,748.5C 9.95957,689.159 9.12624,629.826 7.5,570.5C 8.33988,516.156 9.67321,461.823 11.5,407.5C 11.1326,386.814 10.2992,366.148 9,345.5C 4.59075,302.432 1.42409,259.432 -0.5,216.5C -0.5,204.5 -0.5,192.5 -0.5,180.5C 0.37072,167.66 1.20405,154.66 2,141.5C 4.68181,121.107 7.01515,100.773 9,80.5C 20.2291,43.6046 44.3957,19.7713 81.5,9C 109.108,4.10781 136.775,0.941145 164.5,-0.5 Z M 515.5,22.5 C 475.557,26.8579 435.557,27.5246 395.5,24.5C 435.484,22.354 475.484,21.6873 515.5,22.5 Z M 1048.5,574.5 C 1051.84,606.63 1052.34,638.964 1050,671.5C 1049.01,691.026 1047.51,710.36 1045.5,729.5C 1046.27,689.151 1047.61,648.818 1049.5,608.5C 1049.03,597.169 1048.69,585.836 1048.5,574.5 Z M 1049.5,1107.5 C 1050.8,1146.18 1050.46,1184.84 1048.5,1223.5C 1047.21,1184.82 1047.55,1146.16 1049.5,1107.5 Z M 57.5,1323.5 C 66.0881,1329.29 75.0881,1334.29 84.5,1338.5C 73.8245,1336.33 64.8245,1331.33 57.5,1323.5 Z M 781.5,1339.5 C 798.665,1338.73 815.998,1338.73 833.5,1339.5C 816.332,1340.43 798.999,1340.43 781.5,1339.5 Z"/></g>
<g><path style="opacity:1" fill="#76bcbb" d="M 395.5,24.5 C 435.557,27.5246 475.557,26.8579 515.5,22.5C 570.798,25.4211 626.131,26.5877 681.5,26C 724.476,22.9657 767.476,20.299 810.5,18C 824.163,17.5001 837.829,17.3334 851.5,17.5C 860.986,18.4938 870.652,18.8271 880.5,18.5C 905.685,19.3873 931.019,20.554 956.5,22C 979.443,24.485 1000.11,32.485 1018.5,46C 1037.58,63.5653 1046.75,85.3986 1046,111.5C 1048.86,177.487 1049.2,243.487 1047,309.5C 1044.75,342.818 1042.75,376.152 1041,409.5C 1040.33,435.833 1040.33,462.167 1041,488.5C 1042.95,517.231 1045.45,545.898 1048.5,574.5C 1048.69,585.836 1049.03,597.169 1049.5,608.5C 1047.61,648.818 1046.27,689.151 1045.5,729.5C 1043.93,757.973 1042.93,786.473 1042.5,815C 1044.96,912.499 1047.29,1010 1049.5,1107.5C 1047.55,1146.16 1047.21,1184.82 1048.5,1223.5C 1046.41,1240.11 1045.57,1256.78 1046,1273.5C 1044.21,1288.23 1038.21,1300.9 1028,1311.5C 1013.81,1326.01 996.645,1334.84 976.5,1338C 928.833,1338.54 881.166,1339.04 833.5,1339.5C 815.998,1338.73 798.665,1338.73 781.5,1339.5C 765.873,1338.2 750.207,1337.54 734.5,1337.5C 703.153,1338.28 671.82,1339.45 640.5,1341C 618.833,1341.67 597.167,1341.67 575.5,1341C 538.963,1334.58 502.129,1332.08 465,1333.5C 416.349,1333.04 367.849,1335.54 319.5,1341C 248.424,1345.04 177.424,1344.2 106.5,1338.5C 100.541,1339.41 94.5405,1339.75 88.5,1339.5C 87.4324,1338.57 86.099,1338.23 84.5,1338.5C 75.0881,1334.29 66.0881,1329.29 57.5,1323.5C 57.5,1322.83 57.1667,1322.5 56.5,1322.5C 56.5,1321.83 56.1667,1321.5 55.5,1321.5C 55.5,1320.83 55.1667,1320.5 54.5,1320.5C 54.5,1319.83 54.1667,1319.5 53.5,1319.5C 53.5,1318.83 53.1667,1318.5 52.5,1318.5C 52.5,1317.83 52.1667,1317.5 51.5,1317.5C 51.5,1316.83 51.1667,1316.5 50.5,1316.5C 50.5,1315.83 50.1667,1315.5 49.5,1315.5C 49.5,1314.83 49.1667,1314.5 48.5,1314.5C 48.5,1313.83 48.1667,1313.5 47.5,1313.5C 47.6716,1312.51 47.3382,1311.84 46.5,1311.5C 46.5,1310.83 46.1667,1310.5 45.5,1310.5C 45.5,1309.83 45.1667,1309.5 44.5,1309.5C 44.0679,1308.29 43.4013,1307.29 42.5,1306.5C 42.0679,1305.29 41.4013,1304.29 40.5,1303.5C 32.4805,1290.61 27.3139,1276.61 25,1261.5C 24.2707,1211.16 23.4374,1160.83 22.5,1110.5C 23.063,1063.49 24.063,1016.49 25.5,969.5C 25.4999,954.663 25.1666,939.996 24.5,925.5C 24.8271,915.652 24.4938,905.986 23.5,896.5C 23.8264,887.651 23.493,878.984 22.5,870.5C 22.8271,860.652 22.4938,850.986 21.5,841.5C 21.3335,829.495 21.5001,817.495 22,805.5C 27.2568,762.657 28.9235,719.657 27,676.5C 25.7815,641.008 24.9482,605.508 24.5,570C 25.718,517.164 27.0514,464.331 28.5,411.5C 28.4241,392.488 27.9241,373.488 27,354.5C 24.0325,322.191 21.3659,289.858 19,257.5C 17.0525,220.163 17.0525,182.83 19,145.5C 21.66,125.884 23.66,106.218 25,86.5C 32.6148,57.876 50.4482,38.376 78.5,28C 85.01,25.7058 91.6767,24.0392 98.5,23C 152.001,16.4273 205.668,14.7606 259.5,18C 286.865,19.5582 314.199,21.5582 341.5,24C 359.497,24.4999 377.497,24.6666 395.5,24.5 Z M 515.5,22.5 C 475.557,26.8579 435.557,27.5246 395.5,24.5C 435.484,22.354 475.484,21.6873 515.5,22.5 Z"/></g>
<g><path style="opacity:1" fill="#424545" d="M 156.5,22.5 C 216.642,20.918 276.642,23.0846 336.5,29C 384.009,29.438 431.509,28.938 479,27.5C 532.177,28.6811 585.344,30.0144 638.5,31.5C 663.513,31.5282 688.513,31.0282 713.5,30C 796.773,22.1082 880.106,21.4415 963.5,28C 986.3,32.4829 1006.13,42.6496 1023,58.5C 1033.56,71.1769 1039.23,85.8436 1040,102.5C 1043.01,156.796 1044.01,211.129 1043,265.5C 1039.75,329.149 1036.91,392.815 1034.5,456.5C 1034.62,476.53 1035.45,496.53 1037,516.5C 1045.03,567.543 1047.7,618.877 1045,670.5C 1043.1,699.174 1041.1,727.84 1039,756.5C 1038,776.653 1037.5,796.819 1037.5,817C 1039.11,903.847 1041.27,990.681 1044,1077.5C 1045.58,1144.24 1044.25,1210.9 1040,1277.5C 1029.75,1307.75 1008.91,1325.92 977.5,1332C 926.33,1332.68 875.163,1333.51 824,1334.5C 793.15,1334.44 762.317,1333.77 731.5,1332.5C 690.826,1333.59 650.16,1334.92 609.5,1336.5C 587.991,1336.7 566.657,1334.87 545.5,1331C 520.904,1328.35 496.237,1327.18 471.5,1327.5C 417.343,1327.52 363.343,1330.36 309.5,1336C 242.115,1338.66 174.782,1337.83 107.5,1333.5C 90.2288,1336.35 74.8955,1332.19 61.5,1321C 44.8899,1304.95 34.7233,1285.45 31,1262.5C 30.7978,1233.82 30.1311,1205.15 29,1176.5C 28.2066,1106.82 28.7066,1037.15 30.5,967.5C 29.4896,924.008 28.4896,880.508 27.5,837C 26.8305,813.031 28.3305,789.197 32,765.5C 32.8196,749.01 33.3196,732.51 33.5,716C 32.303,666.168 31.303,616.334 30.5,566.5C 31.2039,515.161 32.2039,463.828 33.5,412.5C 33.4882,390.488 32.9882,368.488 32,346.5C 25.1083,287.353 22.1083,228.019 23,168.5C 23.4219,158.15 24.0886,147.817 25,137.5C 27.2312,122.551 28.8979,107.551 30,92.5C 36.6271,60.5319 55.7937,40.0319 87.5,31C 110.497,26.9896 133.497,24.1563 156.5,22.5 Z"/></g>
<g><path style="opacity:1" fill="#78c1c0" d="M 172.5,27.5 C 227.968,27.0071 283.301,29.5071 338.5,35C 385.183,35.3076 431.85,34.4743 478.5,32.5C 533.154,34.6462 587.82,36.3128 642.5,37.5C 664.177,37.4443 685.844,36.9443 707.5,36C 762.713,30.6418 818.047,28.3085 873.5,29C 903.865,30.1129 934.198,31.7795 964.5,34C 981.327,37.4176 996.66,44.0843 1010.5,54C 1024.83,66.1662 1032.67,81.6662 1034,100.5C 1037.16,157.451 1038.16,214.451 1037,271.5C 1035.42,316.205 1033.09,360.871 1030,405.5C 1026.99,463.822 1029.99,521.822 1039,579.5C 1040.95,610.168 1040.95,640.834 1039,671.5C 1037.19,700.18 1035.19,728.846 1033,757.5C 1032.07,775.321 1031.57,793.154 1031.5,811C 1033.38,913.85 1035.88,1016.68 1039,1119.5C 1039.67,1142.83 1039.67,1166.17 1039,1189.5C 1037.19,1219.23 1035.52,1248.89 1034,1278.5C 1026.12,1301.38 1010.62,1316.54 987.5,1324C 983.203,1325.16 978.869,1326.16 974.5,1327C 921.656,1327.23 868.822,1328.07 816,1329.5C 788.521,1328.27 761.021,1327.27 733.5,1326.5C 692.165,1327.8 650.831,1329.14 609.5,1330.5C 599.167,1330.33 588.833,1330.17 578.5,1330C 542.267,1323.9 505.767,1321.06 469,1321.5C 442.153,1321.92 415.32,1322.75 388.5,1324C 295.272,1333.86 201.939,1335.02 108.5,1327.5C 93.3944,1331.12 79.7277,1328.29 67.5,1319C 49.7894,1303.08 39.2894,1283.25 36,1259.5C 35.7228,1223.16 35.0562,1186.83 34,1150.5C 33.3333,1124.17 33.3333,1097.83 34,1071.5C 35.3387,1038.68 36.172,1005.85 36.5,973C 35.6221,926.654 34.2888,880.32 32.5,834C 33.1281,809.755 34.9614,785.589 38,761.5C 38.6667,731.167 38.6667,700.833 38,670.5C 36.8849,638.507 36.0515,606.507 35.5,574.5C 36.8334,520.499 38.1667,466.499 39.5,412.5C 39.6919,387.465 38.8585,362.465 37,337.5C 30.1875,280.356 27.5209,223.022 29,165.5C 29.4324,156.15 30.099,146.816 31,137.5C 33.6564,119.881 35.6564,102.215 37,84.5C 44.2222,63.6076 58.0555,48.7743 78.5,40C 83.7724,38.1314 89.1057,36.4647 94.5,35C 120.554,31.4175 146.554,28.9175 172.5,27.5 Z"/></g>
</svg>
