<?xml version="1.0" encoding="UTF-8"?>
<!DOCTYPE svg PUBLIC "-//W3C//DTD SVG 1.1//EN" "http://www.w3.org/Graphics/SVG/1.1/DTD/svg11.dtd">
<svg xmlns="http://www.w3.org/2000/svg" version="1.1" width="244px" height="178px" style="shape-rendering:geometricPrecision; text-rendering:geometricPrecision; image-rendering:optimizeQuality; fill-rule:evenodd; clip-rule:evenodd" xmlns:xlink="http://www.w3.org/1999/xlink">
<g><path style="opacity:0.106" fill="#000000" d="M 63.5,-0.5 C 80.5,-0.5 97.5,-0.5 114.5,-0.5C 135.996,0.331967 157.663,0.831967 179.5,1C 191.537,3.00733 202.87,7.00733 213.5,13C 215.984,15.7441 218.984,17.7441 222.5,19C 236.037,33.2259 243.037,50.0592 243.5,69.5C 243.5,74.8333 243.5,80.1667 243.5,85.5C 244.452,110.143 238.285,132.809 225,153.5C 216.576,163.239 206.076,169.739 193.5,173C 183.41,174.612 173.41,176.112 163.5,177.5C 153.833,177.5 144.167,177.5 134.5,177.5C 131.359,176.679 128.025,176.179 124.5,176C 106.833,175.667 89.1667,175.333 71.5,175C 59.7954,173.432 48.4621,170.432 37.5,166C 26.1863,157.678 17.3529,147.178 11,134.5C 6.99755,125.493 3.99755,116.159 2,106.5C 1.04768,88.5048 0.714345,70.5048 1,52.5C 4.35034,37.9562 11.1837,25.4562 21.5,15C 26.5,12 31.5,9 36.5,6C 45.5107,3.39522 54.5107,1.22855 63.5,-0.5 Z"/></g>
<g><path style="opacity:0.993" fill="#41403f" d="M 64.5,141.5 C 48.7236,134.055 36.057,123.055 26.5,108.5C 18.8693,95.8443 16.8693,82.3443 20.5,68C 12.9418,37.7803 23.6084,17.1136 52.5,6C 56.4423,5.00707 60.4423,4.34041 64.5,4C 102.172,4.60047 139.839,4.93381 177.5,5C 211.088,11.5795 227.088,31.9128 225.5,66C 224.82,75.8228 224.32,85.6561 224,95.5C 217.668,130.154 196.834,146.654 161.5,145C 152.5,145.667 143.5,145.667 134.5,145C 114.538,142.584 94.5382,142.084 74.5,143.5C 71.087,143.146 67.7537,142.479 64.5,141.5 Z"/></g>
<g><path style="opacity:1" fill="#e78a6c" d="M 58.5,11.5 C 95.3429,12.1492 132.176,12.1492 169,11.5C 184.655,12.4899 197.988,18.4899 209,29.5C 212.721,34.2754 215.388,39.6088 217,45.5C 217.153,60.1914 217.32,74.8581 217.5,89.5C 213.707,123.456 194.707,139.622 160.5,138C 138.479,137.909 116.479,137.076 94.5,135.5C 80.5217,138.904 67.5217,136.737 55.5,129C 41.5033,119.511 32.0033,106.678 27,90.5C 26.4586,82.8243 26.6253,75.1576 27.5,67.5C 20.1697,38.813 30.503,20.1464 58.5,11.5 Z"/></g>
<g><path style="opacity:1" fill="#464241" d="M 103.5,87.5 C 116.504,87.3334 129.504,87.5001 142.5,88C 146.632,96.2295 143.965,99.8962 134.5,99C 123.5,99.6667 112.5,99.6667 101.5,99C 97.1956,94.3518 97.8622,90.5185 103.5,87.5 Z"/></g>
<g><path style="opacity:0.995" fill="#d68166" d="M 26.5,108.5 C 36.057,123.055 48.7236,134.055 64.5,141.5C 45.0618,138.401 32.3952,127.401 26.5,108.5 Z"/></g>
</svg>
