<?xml version="1.0" encoding="UTF-8"?>
<!DOCTYPE svg PUBLIC "-//W3C//DTD SVG 1.1//EN" "http://www.w3.org/Graphics/SVG/1.1/DTD/svg11.dtd">
<svg xmlns="http://www.w3.org/2000/svg" version="1.1" width="243px" height="178px" style="shape-rendering:geometricPrecision; text-rendering:geometricPrecision; image-rendering:optimizeQuality; fill-rule:evenodd; clip-rule:evenodd" xmlns:xlink="http://www.w3.org/1999/xlink">
<g><path style="opacity:0.106" fill="#000000" d="M 242.5,73.5 C 242.5,79.1667 242.5,84.8333 242.5,90.5C 242.05,101.769 240.883,113.102 239,124.5C 233.303,146.859 219.803,162.359 198.5,171C 182.968,176.181 166.968,177.847 150.5,176C 136.952,174.122 123.286,173.288 109.5,173.5C 94.5271,173.216 79.6937,174.216 65,176.5C 34.2081,174.372 13.8747,158.705 4,129.5C 1.4662,121.207 -0.0337994,112.873 -0.5,104.5C -0.5,97.8333 -0.5,91.1667 -0.5,84.5C -2.5296,53.7523 8.80373,29.2523 33.5,11C 41.959,6.61562 50.959,3.61562 60.5,2C 96.8464,0.660134 133.18,0.160134 169.5,0.5C 180.73,1.55817 191.73,3.72483 202.5,7C 208.824,11.1632 215.157,15.3299 221.5,19.5C 223.004,23.5144 225.504,26.8478 229,29.5C 236.589,43.3337 241.089,58.0004 242.5,73.5 Z"/></g>
<g><path style="opacity:0.995" fill="#42403f" d="M 79.5,6.5 C 80.9516,7.30192 82.6183,7.80192 84.5,8C 107.534,8.81035 130.534,8.31035 153.5,6.5C 199.022,0.447691 222.688,20.4477 224.5,66.5C 223.846,77.4923 223.346,88.4923 223,99.5C 217.837,123.996 203.004,138.829 178.5,144C 153.34,143.371 128.173,142.538 103,141.5C 95.8333,141.667 88.6667,141.833 81.5,142C 53.7249,148.697 33.8916,138.863 22,112.5C 18.8258,101.928 17.3258,91.095 17.5,80C 17.9834,69.8325 18.4834,59.6659 19,49.5C 23.9755,26.525 37.8089,12.025 60.5,6C 66.8617,5.3466 73.195,5.51327 79.5,6.5 Z"/></g>
<g><path style="opacity:0.978" fill="#e4896b" d="M 153.5,6.5 C 130.534,8.31035 107.534,8.81035 84.5,8C 82.6183,7.80192 80.9516,7.30192 79.5,6.5C 104.323,3.95099 128.99,3.95099 153.5,6.5 Z"/></g>
<g><path style="opacity:1" fill="#e78a6c" d="M 61.5,12.5 C 68.0271,12.0704 74.3604,12.9037 80.5,15C 110.715,15.9344 140.881,15.1011 171,12.5C 197.453,14.2268 212.453,28.2268 216,54.5C 216.124,67.5254 216.291,80.5254 216.5,93.5C 213.473,117.023 200.473,131.523 177.5,137C 153.666,136.4 129.833,135.567 106,134.5C 97.1667,134.667 88.3333,134.833 79.5,135C 54.3643,141.013 37.1977,131.846 28,107.5C 27.2057,104.529 26.539,101.529 26,98.5C 25.3333,82.5 25.3333,66.5 26,50.5C 31.1492,31.5196 42.9825,18.853 61.5,12.5 Z"/></g>
<g><path style="opacity:1" fill="#474342" d="M 101.5,65.5 C 112.838,65.3335 124.172,65.5001 135.5,66C 139.861,68.1345 140.527,71.1345 137.5,75C 124.833,75.6667 112.167,75.6667 99.5,75C 96.3628,70.9312 97.0295,67.7645 101.5,65.5 Z"/></g>
<g><path style="opacity:1" fill="#464241" d="M 101.5,94.5 C 112.838,94.3335 124.172,94.5001 135.5,95C 139.085,97.5281 139.418,100.528 136.5,104C 124.5,104.667 112.5,104.667 100.5,104C 97.7533,100.553 98.0866,97.386 101.5,94.5 Z"/></g>
</svg>
