<?xml version="1.0" encoding="UTF-8"?>
<!DOCTYPE svg PUBLIC "-//W3C//DTD SVG 1.1//EN" "http://www.w3.org/Graphics/SVG/1.1/DTD/svg11.dtd">
<svg xmlns="http://www.w3.org/2000/svg" version="1.1" width="244px" height="179px" style="shape-rendering:geometricPrecision; text-rendering:geometricPrecision; image-rendering:optimizeQuality; fill-rule:evenodd; clip-rule:evenodd" xmlns:xlink="http://www.w3.org/1999/xlink">
<g><path style="opacity:0.106" fill="#000000" d="M 104.5,-0.5 C 124.833,-0.5 145.167,-0.5 165.5,-0.5C 175.305,1.26949 185.305,2.76949 195.5,4C 222.508,12.3415 238.008,30.5081 242,58.5C 242.024,68.8438 241.524,79.1771 240.5,89.5C 240.77,98.1964 241.436,106.863 242.5,115.5C 241.605,128.108 238.105,139.774 232,150.5C 217.13,170.347 197.296,178.847 172.5,176C 165.069,175.604 157.736,174.771 150.5,173.5C 147.045,173.421 143.712,173.921 140.5,175C 113.96,175.008 87.4596,175.842 61,177.5C 55.0086,177.712 49.1752,176.878 43.5,175C 38.8398,173.012 34.1731,171.012 29.5,169C 14.3739,157.606 5.20726,142.439 2,123.5C 0.955699,104.174 0.622366,84.8402 1,65.5C 1.94757,45.9786 9.44757,29.4786 23.5,16C 29.0893,13.4005 34.4227,10.4005 39.5,7C 44.5366,4.4818 49.87,3.14847 55.5,3C 71.9694,1.53611 88.3028,0.369443 104.5,-0.5 Z"/></g>
<g><path style="opacity:0.993" fill="#424242" d="M 166.5,142.5 C 166.082,141.778 165.416,141.278 164.5,141C 134.87,137.027 105.536,137.86 76.5,143.5C 47.3197,149.489 28.4863,138.156 20,109.5C 19.6009,94.6631 19.1009,79.8298 18.5,65C 16.2771,43.4637 23.6104,26.1303 40.5,13C 48.1743,8.33128 56.5077,5.99794 65.5,6C 101.162,3.68946 136.829,3.35612 172.5,5C 199.673,5.31679 216.84,18.4835 224,44.5C 223.831,54.8588 222.998,65.1921 221.5,75.5C 222.051,84.3955 223.051,93.2289 224.5,102C 221.115,127.867 206.449,142.367 180.5,145.5C 175.914,144.187 171.247,143.187 166.5,142.5 Z"/></g>
<g><path style="opacity:1" fill="#e5eeef" d="M 104.5,11.5 C 126.169,11.3334 147.836,11.5 169.5,12C 177.995,12.9271 186.328,14.5937 194.5,17C 206.408,22.9196 213.908,32.4196 217,45.5C 215.852,54.7489 215.018,64.0823 214.5,73.5C 214.658,83.0902 215.658,92.5902 217.5,102C 214.013,122.82 201.846,134.987 181,138.5C 175.574,136.803 170.074,135.303 164.5,134C 129.39,129.644 94.5566,131.144 60,138.5C 49.5351,137.714 41.2018,133.048 35,124.5C 31.0004,119.499 28.3338,113.832 27,107.5C 26.604,93.1629 26.104,78.8295 25.5,64.5C 23.3554,41.2696 32.6888,24.7696 53.5,15C 70.6065,13.3816 87.6065,12.215 104.5,11.5 Z"/></g>
<g><path style="opacity:1" fill="#434444" d="M 115.5,42.5 C 132.32,41.1355 142.487,48.8021 146,65.5C 147.223,76.7184 146.223,87.7184 143,98.5C 135.003,115.165 122.836,118.998 106.5,110C 101.825,104.666 98.6585,98.4997 97,91.5C 96.3333,82.8333 96.3333,74.1667 97,65.5C 99.7133,54.9632 105.88,47.2965 115.5,42.5 Z"/></g>
<g><path style="opacity:1" fill="#e2ebec" d="M 119.5,51.5 C 127.914,50.7908 133.414,54.4575 136,62.5C 138.974,75.336 137.641,87.6693 132,99.5C 123.172,108.046 115.172,107.38 108,97.5C 103.114,84.6263 103.447,71.9596 109,59.5C 111.539,55.4902 115.039,52.8235 119.5,51.5 Z"/></g>
<g><path style="opacity:0.999" fill="#d3dbdc" d="M 166.5,142.5 C 136.502,142.99 106.502,143.323 76.5,143.5C 105.536,137.86 134.87,137.027 164.5,141C 165.416,141.278 166.082,141.778 166.5,142.5 Z"/></g>
</svg>
