<?xml version="1.0" encoding="UTF-8"?>
<!DOCTYPE svg PUBLIC "-//W3C//DTD SVG 1.1//EN" "http://www.w3.org/Graphics/SVG/1.1/DTD/svg11.dtd">
<svg xmlns="http://www.w3.org/2000/svg" version="1.1" width="243px" height="178px" style="shape-rendering:geometricPrecision; text-rendering:geometricPrecision; image-rendering:optimizeQuality; fill-rule:evenodd; clip-rule:evenodd" xmlns:xlink="http://www.w3.org/1999/xlink">
<g><path style="opacity:0.106" fill="#000000" d="M 70.5,-0.5 C 80.5,-0.5 90.5,-0.5 100.5,-0.5C 114.144,0.992036 127.977,1.99204 142,2.5C 154.826,1.55193 167.659,1.38526 180.5,2C 207.084,4.22917 225.584,17.7292 236,42.5C 238.638,52.5365 240.805,62.5365 242.5,72.5C 242.5,83.8333 242.5,95.1667 242.5,106.5C 240.03,120.457 235.53,133.791 229,146.5C 222.5,153 216,159.5 209.5,166C 201.804,169.599 193.804,172.599 185.5,175C 173.029,176.008 160.696,175.342 148.5,173C 129.5,172.333 110.5,172.333 91.5,173C 82.5855,174.55 73.5855,175.717 64.5,176.5C 52.6969,176.041 41.6969,172.875 31.5,167C 22.2249,159.729 14.3916,151.229 8,141.5C 4.41282,133.591 2.07948,125.258 1,116.5C 0.087068,96.1332 0.420401,75.7998 2,55.5C 4.7884,47.9217 7.45506,40.255 10,32.5C 13.902,26.5407 18.402,21.0407 23.5,16C 28.4352,13.3943 33.1019,10.3943 37.5,7C 48.3143,3.20382 59.3143,0.703819 70.5,-0.5 Z"/></g>
<g><path style="opacity:0.992" fill="#403f3f" d="M 75.5,3.5 C 97.6665,4.43744 119.833,5.43744 142,6.5C 155.831,5.73074 169.664,5.56407 183.5,6C 206.102,12.2776 219.268,27.1109 223,50.5C 223.667,66.1667 223.667,81.8333 223,97.5C 217.752,124.583 201.586,140.25 174.5,144.5C 146.967,140.675 119.3,139.508 91.5,141C 84.7683,141.566 78.1017,142.566 71.5,144C 51.8807,145.44 36.714,137.94 26,121.5C 22.8823,116.145 20.549,110.478 19,104.5C 18.3333,85.5 18.3333,66.5 19,47.5C 23.0318,26.4706 35.1985,12.6372 55.5,6C 62.3085,5.11672 68.9752,4.28339 75.5,3.5 Z"/></g>
<g><path style="opacity:1" fill="#e78a6c" d="M 70.5,11.5 C 94.3484,11.6566 118.182,12.3233 142,13.5C 154.176,13.1256 166.343,12.9589 178.5,13C 200.023,16.8582 212.523,29.6915 216,51.5C 216.906,67.873 216.573,84.2064 215,100.5C 209.627,121.543 196.294,133.876 175,137.5C 155.979,134.163 136.812,132.83 117.5,133.5C 99.5033,132.784 81.6699,134.117 64,137.5C 45.6478,134.491 33.3145,124.157 27,106.5C 26.0462,101.38 25.5462,96.2134 25.5,91C 26.4624,76.8341 26.6291,62.6675 26,48.5C 32.0422,25.2695 46.8755,12.9362 70.5,11.5 Z"/></g>
<g><path style="opacity:1" fill="#484342" d="M 114.5,55.5 C 123.871,55.0263 125.871,58.5263 120.5,66C 113.495,67.3236 110.995,64.4902 113,57.5C 113.717,56.9558 114.217,56.2891 114.5,55.5 Z"/></g>
<g><path style="opacity:1" fill="#434141" d="M 110.5,80.5 C 120.839,80.3335 131.172,80.5002 141.5,81C 146.882,82.8738 147.882,86.2072 144.5,91C 128.831,91.7113 113.164,92.0447 97.5,92C 92.8848,90.923 91.3848,88.0897 93,83.5C 93.5,83 94,82.5 94.5,82C 100.016,81.8267 105.349,81.3267 110.5,80.5 Z"/></g>
<g><path style="opacity:1" fill="#474342" d="M 116.5,103.5 C 124.818,103.987 126.485,107.487 121.5,114C 115.333,115.167 112.833,112.667 114,106.5C 115.045,105.627 115.878,104.627 116.5,103.5 Z"/></g>
</svg>
