<?xml version="1.0" encoding="UTF-8"?>
<!DOCTYPE svg PUBLIC "-//W3C//DTD SVG 1.1//EN" "http://www.w3.org/Graphics/SVG/1.1/DTD/svg11.dtd">
<svg xmlns="http://www.w3.org/2000/svg" version="1.1" width="121px" height="123px" style="shape-rendering:geometricPrecision; text-rendering:geometricPrecision; image-rendering:optimizeQuality; fill-rule:evenodd; clip-rule:evenodd" xmlns:xlink="http://www.w3.org/1999/xlink">
<g><path style="opacity:0.089" fill="#000000" d="M 46.5,0.5 C 63.7372,-1.03718 80.4039,1.12948 96.5,7C 100.244,9.95531 104.078,12.7886 108,15.5C 116.934,29.3148 120.767,44.4815 119.5,61C 120.76,74.1201 118.593,86.6201 113,98.5C 106.244,107.912 97.4105,114.745 86.5,119C 67.5,122.333 48.5,122.333 29.5,119C 13.4797,110.631 3.9797,97.4645 1,79.5C 0.333333,67.1667 0.333333,54.8333 1,42.5C 2.63007,35.9791 4.63007,29.6458 7,23.5C 11.8333,17.3333 17.3333,11.8333 23.5,7C 31.1235,4.40444 38.7901,2.23778 46.5,0.5 Z"/></g>
<g><path style="opacity:0.993" fill="#3f4040" d="M 49.5,4.5 C 61.3947,3.73577 73.0613,4.90244 84.5,8C 91.7808,11.9482 96.9474,17.7815 100,25.5C 101.591,38.777 101.924,52.1104 101,65.5C 96.0408,81.2748 85.2075,89.2748 68.5,89.5C 58.8353,88.5345 49.1686,88.3679 39.5,89C 29.6928,85.8595 23.1928,79.3595 20,69.5C 18.8866,62.2414 18.3866,54.9081 18.5,47.5C 15.6137,32.3195 19.947,19.8195 31.5,10C 37.1703,6.60609 43.1703,4.77275 49.5,4.5 Z"/></g>
<g><path style="opacity:1" fill="#78c0bf" d="M 56.5,11.5 C 65.0855,11.1143 73.4189,12.281 81.5,15C 90.3325,19.824 94.6658,27.324 94.5,37.5C 93.4566,46.5017 93.29,55.5017 94,64.5C 89.8276,76.4903 81.3276,82.4903 68.5,82.5C 59.1656,81.4888 49.8323,81.3221 40.5,82C 33.1187,78.2848 28.2854,72.4514 26,64.5C 26.2966,54.3193 26.1299,44.1526 25.5,34C 26.9656,25.0612 31.6323,18.3945 39.5,14C 45.2879,13.0387 50.9546,12.2054 56.5,11.5 Z"/></g>
<g><path style="opacity:1" fill="#424545" d="M 68.5,31.5 C 70.9124,31.244 72.5791,32.244 73.5,34.5C 69.4471,39.2192 65.7804,44.2192 62.5,49.5C 64.4674,53.297 66.6341,56.9636 69,60.5C 70.1667,64.6667 68.6667,66.1667 64.5,65C 62.6667,61.8333 60.8333,58.6667 59,55.5C 55.6354,60.8538 52.3021,66.1871 49,71.5C 47.0955,70.842 45.5955,69.6753 44.5,68C 47.9356,61.723 51.6023,55.5563 55.5,49.5C 53.6667,45.8333 51.8333,42.1667 50,38.5C 49.2545,34.4687 50.7545,33.1354 54.5,34.5C 55.9131,37.6612 57.5797,40.6612 59.5,43.5C 62.5244,39.4815 65.5244,35.4815 68.5,31.5 Z"/></g>
</svg>
