<?xml version="1.0" encoding="UTF-8"?>
<!DOCTYPE svg PUBLIC "-//W3C//DTD SVG 1.1//EN" "http://www.w3.org/Graphics/SVG/1.1/DTD/svg11.dtd">
<svg xmlns="http://www.w3.org/2000/svg" version="1.1" width="243px" height="183px" style="shape-rendering:geometricPrecision; text-rendering:geometricPrecision; image-rendering:optimizeQuality; fill-rule:evenodd; clip-rule:evenodd" xmlns:xlink="http://www.w3.org/1999/xlink">
<g><path style="opacity:0.106" fill="#000000" d="M 242.5,59.5 C 242.5,66.1667 242.5,72.8333 242.5,79.5C 241.669,93.3273 241.169,107.327 241,121.5C 239.179,143.399 229.679,160.899 212.5,174C 208.281,175.109 204.281,176.775 200.5,179C 193.699,180.114 186.866,180.948 180,181.5C 141.24,180.836 102.406,180.336 63.5,180C 34.401,175.237 14.5677,159.071 4,131.5C 2.40884,126.976 1.40884,122.309 1,117.5C 0.0770612,94.8007 0.410395,72.134 2,49.5C 9.01684,27.1498 23.8502,12.9832 46.5,7C 57.7921,5.27468 69.1254,3.60802 80.5,2C 95.1386,0.530253 109.805,0.19692 124.5,1C 142.446,3.06802 160.446,4.40135 178.5,5C 189.462,7.42897 200.128,10.5956 210.5,14.5C 216.605,18.6333 222.772,22.6333 229,26.5C 230.471,30.6534 232.804,34.3201 236,37.5C 238.49,44.8642 240.657,52.1975 242.5,59.5 Z"/></g>
<g><path style="opacity:0.993" fill="#414242" d="M 48.5,142.5 C 41.2473,137.917 34.914,132.25 29.5,125.5C 24.7252,119.622 21.2252,112.955 19,105.5C 18.7719,87.6539 18.2719,69.8206 17.5,52C 19.3425,29.8233 31.0092,15.8233 52.5,10C 70.5693,7.40279 88.9027,5.56946 107.5,4.5C 131.853,6.18369 156.186,8.01702 180.5,10C 195.194,12.4291 207.694,18.9291 218,29.5C 220.973,34.0788 222.973,39.0788 224,44.5C 224.015,58.5044 223.515,72.5044 222.5,86.5C 225.56,104.804 221.727,121.471 211,136.5C 203.817,145.424 194.484,149.757 183,149.5C 152.539,149.399 122.039,148.732 91.5,147.5C 83.4872,147.588 75.4872,147.921 67.5,148.5C 60.6254,147.879 54.2921,145.879 48.5,142.5 Z"/></g>
<g><path style="opacity:1" fill="#e5eeef" d="M 110.5,13.5 C 118.17,13.778 125.836,14.1114 133.5,14.5C 148.154,15.4438 162.821,16.2771 177.5,17C 188.884,19.0115 199.218,23.3448 208.5,30C 211.642,33.7848 214.142,37.9515 216,42.5C 215.968,61.6828 216.134,80.8495 216.5,100C 215.615,114.341 210.282,126.674 200.5,137C 196.928,139.637 192.928,141.303 188.5,142C 156.344,141.708 124.178,141.208 92,140.5C 59.8822,146.11 37.8822,133.776 26,103.5C 26.223,86.3247 26.0563,69.1581 25.5,52C 26.5071,35.3204 34.8404,23.9871 50.5,18C 63.5192,16.5972 76.5192,14.9305 89.5,13C 96.5803,12.2055 103.58,12.3722 110.5,13.5 Z"/></g>
<g><path style="opacity:0.559" fill="#1e1e1e" d="M 110.5,13.5 C 113.482,12.8351 116.648,12.5018 120,12.5C 124.772,12.3078 129.272,12.9745 133.5,14.5C 125.836,14.1114 118.17,13.778 110.5,13.5 Z"/></g>
<g><path style="opacity:1" fill="#444444" d="M 118.5,73.5 C 119.811,69.3171 119.811,64.9838 118.5,60.5C 117.893,60.6236 117.56,60.9569 117.5,61.5C 116.027,62.072 114.693,62.9054 113.5,64C 108.504,64.6643 106.67,62.4977 108,57.5C 112.167,54 116.333,50.5 120.5,47C 123.002,45.5684 125.502,45.4018 128,46.5C 128.364,66.5223 127.864,86.5223 126.5,106.5C 132.986,104.835 135.819,107.168 135,113.5C 134.5,114 134,114.5 133.5,115C 124.921,115.816 116.421,115.649 108,114.5C 106.853,107.161 110.019,104.494 117.5,106.5C 117.457,95.4855 117.791,84.4855 118.5,73.5 Z"/></g>
<g><path style="opacity:1" fill="#8f9394" d="M 117.5,61.5 C 117.56,60.9569 117.893,60.6236 118.5,60.5C 119.811,64.9838 119.811,69.3171 118.5,73.5C 118.817,69.2984 118.483,65.2984 117.5,61.5 Z"/></g>
<g><path style="opacity:0.675" fill="#b9bfc0" d="M 29.5,125.5 C 34.914,132.25 41.2473,137.917 48.5,142.5C 39.9524,139.285 33.6191,133.618 29.5,125.5 Z"/></g>
</svg>
