<?xml version="1.0" encoding="UTF-8"?>
<!DOCTYPE svg PUBLIC "-//W3C//DTD SVG 1.1//EN" "http://www.w3.org/Graphics/SVG/1.1/DTD/svg11.dtd">
<svg xmlns="http://www.w3.org/2000/svg" version="1.1" width="244px" height="182px" style="shape-rendering:geometricPrecision; text-rendering:geometricPrecision; image-rendering:optimizeQuality; fill-rule:evenodd; clip-rule:evenodd" xmlns:xlink="http://www.w3.org/1999/xlink">
<g><path style="opacity:0.106" fill="#000000" d="M -0.5,110.5 C -0.5,106.167 -0.5,101.833 -0.5,97.5C -1.96354,75.264 2.53646,54.264 13,34.5C 18.5142,29.2862 23.6808,23.7862 28.5,18C 36.431,13.398 44.7644,9.73131 53.5,7C 76.6624,3.33757 99.9958,1.17091 123.5,0.5C 149.627,0.827029 175.293,4.32703 200.5,11C 204.785,13.2518 209.118,15.5852 213.5,18C 230.807,33.9847 240.307,53.8181 242,77.5C 243.482,95.3901 242.149,113.057 238,130.5C 232.752,143.84 224.919,155.34 214.5,165C 202.158,173.223 188.492,178.223 173.5,180C 135.515,180.277 97.5148,180.277 59.5,180C 46.4977,178.665 35.4977,173.331 26.5,164C 24.5,163 22.5,162 20.5,161C 18.1113,155.946 14.9446,151.446 11,147.5C 4.71475,135.886 0.881414,123.553 -0.5,110.5 Z"/></g>
<g><path style="opacity:0.991" fill="#404040" d="M 105.5,4.5 C 133.172,3.4453 160.505,5.9453 187.5,12C 207.332,19.8439 219.165,34.3439 223,55.5C 224.742,70.4896 224.742,85.4896 223,100.5C 218.552,124.902 204.386,140.402 180.5,147C 176.555,147.925 172.555,148.425 168.5,148.5C 132.176,148.248 95.8427,148.082 59.5,148C 31.3215,137.845 17.3215,117.679 17.5,87.5C 18.2095,76.8454 18.7095,66.1787 19,55.5C 23.3585,31.571 37.1918,16.4043 60.5,10C 75.7037,8.65847 90.7037,6.82513 105.5,4.5 Z"/></g>
<g><path style="opacity:1" fill="#e5eeef" d="M 124.5,12.5 C 131.841,12.3337 139.174,12.5003 146.5,13C 158.058,15.3844 169.725,17.051 181.5,18C 199.099,23.2652 210.265,34.7652 215,52.5C 217.706,67.7594 218.04,83.0928 216,98.5C 211.724,122.555 197.557,136.722 173.5,141C 135.85,141.077 98.1833,141.077 60.5,141C 41.9873,134.486 30.4873,121.652 26,102.5C 25.9739,88.8152 25.8072,75.1486 25.5,61.5C 27.7344,38.7657 39.7344,23.9324 61.5,17C 82.6394,15.3158 103.639,13.8158 124.5,12.5 Z"/></g>
<g><path style="opacity:1" fill="#424242" d="M 116.5,73.5 C 127.791,72.9584 132.624,78.2918 131,89.5C 125.213,98.0388 118.546,98.7055 111,91.5C 107.697,83.7891 109.53,77.7891 116.5,73.5 Z"/></g>
</svg>
