<?xml version="1.0" encoding="UTF-8"?>
<!DOCTYPE svg PUBLIC "-//W3C//DTD SVG 1.1//EN" "http://www.w3.org/Graphics/SVG/1.1/DTD/svg11.dtd">
<svg xmlns="http://www.w3.org/2000/svg" version="1.1" width="246px" height="179px" style="shape-rendering:geometricPrecision; text-rendering:geometricPrecision; image-rendering:optimizeQuality; fill-rule:evenodd; clip-rule:evenodd" xmlns:xlink="http://www.w3.org/1999/xlink">
<g><path style="opacity:0.107" fill="#000000" d="M 128.5,0.5 C 145.503,0.333397 162.503,0.500064 179.5,1C 191.56,2.10093 203.226,4.7676 214.5,9C 217.037,11.5457 220.037,13.2124 223.5,14C 231.468,22.2775 237.302,31.7775 241,42.5C 242.851,48.0083 243.851,53.675 244,59.5C 244.133,82.1671 243.8,104.834 243,127.5C 237.656,153.845 221.823,170.011 195.5,176C 176.76,174.814 157.926,173.98 139,173.5C 115.206,173.601 91.5398,174.934 68,177.5C 38.6973,177.691 18.3639,164.358 7,137.5C -1.33793,105.773 -1.33793,74.106 7,42.5C 16.5664,15.7702 35.7331,2.43686 64.5,2.5C 86.0638,4.25824 107.397,3.59158 128.5,0.5 Z"/></g>
<g><path style="opacity:0.992" fill="#404041" d="M 134.5,4.5 C 154.235,3.96083 173.901,4.79417 193.5,7C 210.658,10.8244 221.158,21.3244 225,38.5C 226.058,45.2807 226.558,52.1141 226.5,59C 225.412,75.5064 225.245,92.0064 226,108.5C 221.181,130.327 207.681,142.661 185.5,145.5C 171.174,142.484 156.674,141.151 142,141.5C 113.142,142.502 84.3088,143.669 55.5,145C 37.9281,139.761 26.7614,128.261 22,110.5C 19.305,92.5837 18.305,74.5837 19,56.5C 24.4467,14.2413 48.1133,-1.75871 90,8.5C 105.012,7.53942 119.845,6.20609 134.5,4.5 Z"/></g>
<g><path style="opacity:1" fill="#e5eeef" d="M 137.5,11.5 C 158.017,10.6096 178.351,12.1096 198.5,16C 210.838,22.3592 217.671,32.5258 219,46.5C 218.469,65.006 218.635,83.506 219.5,102C 217.386,123.075 205.886,135.242 185,138.5C 170.234,135.14 155.234,133.806 140,134.5C 114.445,134.772 88.9447,136.106 63.5,138.5C 45.5229,136.7 34.0229,127.033 29,109.5C 28.3666,98.7994 27.3666,88.1328 26,77.5C 25.3333,70.8333 25.3333,64.1667 26,57.5C 27.9082,50.6297 29.5748,43.6297 31,36.5C 36.0782,25.0866 44.5782,17.5866 56.5,14C 65.8022,14.486 75.1355,14.986 84.5,15.5C 102.379,14.9539 120.045,13.6205 137.5,11.5 Z"/></g>
<g><path style="opacity:1" fill="#444444" d="M 118.5,42.5 C 132.809,40.9885 142.309,46.9885 147,60.5C 150.137,89.8305 137.637,108.497 109.5,116.5C 104.011,114.86 103.344,112.026 107.5,108C 120.26,105.393 129.26,98.226 134.5,86.5C 134.167,86.1667 133.833,85.8333 133.5,85.5C 122.223,90.5554 112.389,88.5554 104,79.5C 96.1996,62.051 101.033,49.7176 118.5,42.5 Z"/></g>
<g><path style="opacity:1" fill="#e3eced" d="M 121.5,51.5 C 131.925,52.0912 137.591,57.5912 138.5,68C 138.569,70.9069 137.569,73.2403 135.5,75C 128.85,79.8743 121.85,80.5409 114.5,77C 108.771,70.9069 107.938,64.0736 112,56.5C 114.64,53.5987 117.807,51.932 121.5,51.5 Z"/></g>
</svg>
