<?xml version="1.0" encoding="UTF-8"?>
<!DOCTYPE svg PUBLIC "-//W3C//DTD SVG 1.1//EN" "http://www.w3.org/Graphics/SVG/1.1/DTD/svg11.dtd">
<svg xmlns="http://www.w3.org/2000/svg" version="1.1" width="243px" height="179px" style="shape-rendering:geometricPrecision; text-rendering:geometricPrecision; image-rendering:optimizeQuality; fill-rule:evenodd; clip-rule:evenodd" xmlns:xlink="http://www.w3.org/1999/xlink">
<g><path style="opacity:0.106" fill="#000000" d="M 101.5,-0.5 C 117.5,-0.5 133.5,-0.5 149.5,-0.5C 166.445,-0.578619 183.111,1.92138 199.5,7C 211.849,12.4152 222.682,19.9152 232,29.5C 236.911,38.9923 240.411,48.9923 242.5,59.5C 242.5,74.1667 242.5,88.8333 242.5,103.5C 241.208,112.384 239.708,121.384 238,130.5C 235.168,137.363 232.168,144.03 229,150.5C 219.817,163.362 207.65,171.862 192.5,176C 172.833,176.667 153.167,176.667 133.5,176C 125.599,174.864 117.599,174.364 109.5,174.5C 94.46,175.039 79.46,175.539 64.5,176C 57.8519,174.338 51.1853,172.671 44.5,171C 37.9086,166.694 31.242,162.361 24.5,158C 20.4156,151.574 15.9156,145.408 11,139.5C 7.40651,132.381 4.40651,125.047 2,117.5C 0.427379,98.5341 0.0940456,79.5341 1,60.5C 4.88628,31.6144 20.7196,12.781 48.5,4C 54.5,3 60.5,2 66.5,1C 78.3405,0.830658 90.0072,0.330658 101.5,-0.5 Z"/></g>
<g><path style="opacity:0.995" fill="#414141" d="M 111.5,3.5 C 131.178,3.52558 150.844,4.02558 170.5,5C 186.092,6.96955 200.092,12.6362 212.5,22C 220.353,30.0424 224.353,39.7091 224.5,51C 224.507,67.0901 224.007,83.2568 223,99.5C 220.943,115.862 213.443,129.029 200.5,139C 193.875,142.948 186.708,145.115 179,145.5C 155.164,144.578 131.331,143.578 107.5,142.5C 93.1652,143.375 78.8319,143.875 64.5,144C 44.159,138.568 29.9924,126.068 22,106.5C 19.7223,101.057 18.5556,95.39 18.5,89.5C 19.0013,74.8447 19.168,60.178 19,45.5C 23.6498,25.5174 35.8165,12.684 55.5,7C 74.2576,5.10281 92.9242,3.93615 111.5,3.5 Z"/></g>
<g><path style="opacity:1" fill="#e5edee" d="M 81.5,11.5 C 111.519,11.1336 141.519,11.6336 171.5,13C 186.938,14.4706 200.104,20.6372 211,31.5C 213.194,34.5544 214.861,37.8878 216,41.5C 216.915,62.2 216.581,82.8667 215,103.5C 212.145,117.074 204.978,127.574 193.5,135C 189.036,137.071 184.369,138.237 179.5,138.5C 155.834,137.522 132.167,136.522 108.5,135.5C 94.1552,136.157 79.8219,136.657 65.5,137C 44.8945,130.391 31.7278,116.558 26,95.5C 26.5006,79.1728 26.5006,62.8395 26,46.5C 31.2478,28.9192 42.7478,17.7525 60.5,13C 67.6787,12.8285 74.6787,12.3285 81.5,11.5 Z"/></g>
<g><path style="opacity:1" fill="#434343" d="M 100.5,41.5 C 114.247,40.8624 127.747,41.5291 141,43.5C 141.92,46.3083 141.087,48.4749 138.5,50C 128.923,50.1803 119.423,50.6803 110,51.5C 109.095,55.8188 108.762,60.1521 109,64.5C 115.7,60.8008 122.867,59.6341 130.5,61C 137.227,64.0646 141.394,69.2313 143,76.5C 146.897,92.5208 141.731,104.354 127.5,112C 116.39,115.348 106.89,112.848 99,104.5C 97.5792,100.518 98.7459,97.8516 102.5,96.5C 105.95,98.7744 109.283,101.274 112.5,104C 126.955,105.446 134.622,98.9459 135.5,84.5C 134.427,70.6144 127.427,66.4477 114.5,72C 111.5,75 108.5,78 105.5,81C 102.975,81.8959 100.808,81.3959 99,79.5C 100.074,66.7725 100.574,54.1058 100.5,41.5 Z"/></g>
</svg>
