<?xml version="1.0" encoding="UTF-8"?>
<!DOCTYPE svg PUBLIC "-//W3C//DTD SVG 1.1//EN" "http://www.w3.org/Graphics/SVG/1.1/DTD/svg11.dtd">
<svg xmlns="http://www.w3.org/2000/svg" version="1.1" width="243px" height="178px" style="shape-rendering:geometricPrecision; text-rendering:geometricPrecision; image-rendering:optimizeQuality; fill-rule:evenodd; clip-rule:evenodd" xmlns:xlink="http://www.w3.org/1999/xlink">
<g><path style="opacity:0.1" fill="#000000" d="M 70.5,-0.5 C 80.5,-0.5 90.5,-0.5 100.5,-0.5C 114.144,0.992036 127.977,1.99204 142,2.5C 161.759,0.248949 181.259,1.41562 200.5,6C 225.181,18.1824 238.681,38.0157 241,65.5C 241.667,80.1667 241.667,94.8333 241,109.5C 237.849,140.943 221.682,162.11 192.5,173C 186.184,174.976 179.684,175.809 173,175.5C 164.689,175.677 156.523,174.843 148.5,173C 129.5,172.333 110.5,172.333 91.5,173C 55.4553,183.538 27.622,173.038 8,141.5C 4.92192,134.818 2.58859,127.818 1,120.5C 0.333333,100.167 0.333333,79.8333 1,59.5C 3.6494,40.6944 12.1494,25.1944 26.5,13C 27.8333,12.6667 29.1667,12.3333 30.5,12C 32.305,9.59715 34.6384,7.93048 37.5,7C 48.3143,3.20382 59.3143,0.703819 70.5,-0.5 Z"/></g>
<g><path style="opacity:0.995" fill="#403f3f" d="M 65.5,7.5 C 87.6626,8.51826 109.829,9.51826 132,10.5C 145.831,9.73074 159.664,9.56407 173.5,10C 196.133,16.3058 209.299,31.1391 213,54.5C 213.667,70.1667 213.667,85.8333 213,101.5C 207.743,128.592 191.577,144.259 164.5,148.5C 145.966,145.4 127.299,144.067 108.5,144.5C 88.056,144.557 67.7227,145.724 47.5,148C 26.899,142.399 14.0656,129.232 9,108.5C 8.05927,87.7903 8.3926,67.1236 10,46.5C 19.2817,19.9731 37.7817,6.97306 65.5,7.5 Z"/></g>
<g><path style="opacity:1" fill="#e78a6c" d="M 60.5,15.5 C 84.3484,15.6566 108.182,16.3233 132,17.5C 144.176,17.1256 156.343,16.9589 168.5,17C 190.023,20.8582 202.523,33.6915 206,55.5C 206.906,71.873 206.573,88.2064 205,104.5C 199.627,125.543 186.294,137.876 165,141.5C 145.979,138.163 126.812,136.83 107.5,137.5C 89.5033,136.784 71.6699,138.117 54,141.5C 35.6478,138.491 23.3145,128.157 17,110.5C 16.0462,105.38 15.5462,100.213 15.5,95C 16.4624,80.8341 16.6291,66.6675 16,52.5C 22.0422,29.2695 36.8755,16.9362 60.5,15.5 Z"/></g>
<g><path style="opacity:1" fill="#494442" d="M 81.5,75.5 C 83.1992,75.3398 84.8659,75.5065 86.5,76C 83.6628,81.3441 80.3295,86.3441 76.5,91C 104.831,91.5 133.165,91.6666 161.5,91.5C 161.5,93.5 161.5,95.5 161.5,97.5C 133.165,97.3334 104.831,97.5 76.5,98C 80.4244,102.763 83.7578,107.93 86.5,113.5C 85.6667,113.833 84.8333,114.167 84,114.5C 79.5696,111.074 75.4029,107.241 71.5,103C 67.3378,100.329 63.3378,97.4953 59.5,94.5C 68.0329,89.6393 75.3662,83.306 81.5,75.5 Z"/></g>
</svg>
