<?xml version="1.0" encoding="UTF-8"?>
<!DOCTYPE svg PUBLIC "-//W3C//DTD SVG 1.1//EN" "http://www.w3.org/Graphics/SVG/1.1/DTD/svg11.dtd">
<svg xmlns="http://www.w3.org/2000/svg" version="1.1" width="243px" height="178px" style="shape-rendering:geometricPrecision; text-rendering:geometricPrecision; image-rendering:optimizeQuality; fill-rule:evenodd; clip-rule:evenodd" xmlns:xlink="http://www.w3.org/1999/xlink">
<g><path style="opacity:0.106" fill="#000000" d="M 70.5,-0.5 C 80.5,-0.5 90.5,-0.5 100.5,-0.5C 114.144,0.992036 127.977,1.99204 142,2.5C 154.826,1.55193 167.659,1.38526 180.5,2C 207.084,4.22917 225.584,17.7292 236,42.5C 238.638,52.5365 240.805,62.5365 242.5,72.5C 242.5,83.8333 242.5,95.1667 242.5,106.5C 240.03,120.457 235.53,133.791 229,146.5C 222.5,153 216,159.5 209.5,166C 201.804,169.599 193.804,172.599 185.5,175C 173.029,176.008 160.696,175.342 148.5,173C 129.5,172.333 110.5,172.333 91.5,173C 82.5855,174.55 73.5855,175.717 64.5,176.5C 52.6969,176.041 41.6969,172.875 31.5,167C 22.2249,159.729 14.3916,151.229 8,141.5C 4.41282,133.591 2.07948,125.258 1,116.5C 0.087068,96.1332 0.420401,75.7998 2,55.5C 4.7884,47.9217 7.45506,40.255 10,32.5C 13.902,26.5407 18.402,21.0407 23.5,16C 28.4352,13.3943 33.1019,10.3943 37.5,7C 48.3143,3.20382 59.3143,0.703819 70.5,-0.5 Z"/></g>
<g><path style="opacity:0.992" fill="#404040" d="M 75.5,3.5 C 97.6666,4.44114 119.833,5.44114 142,6.5C 155.831,5.73074 169.664,5.56407 183.5,6C 206.102,12.2776 219.268,27.1109 223,50.5C 223.667,66.1667 223.667,81.8333 223,97.5C 217.752,124.583 201.586,140.25 174.5,144.5C 146.633,140.669 118.633,139.502 90.5,141C 84.0509,141.278 77.7175,142.278 71.5,144C 51.8807,145.44 36.714,137.94 26,121.5C 22.8823,116.145 20.549,110.478 19,104.5C 18.3333,85.5 18.3333,66.5 19,47.5C 23.0318,26.4706 35.1985,12.6372 55.5,6C 62.3186,5.18769 68.9852,4.35436 75.5,3.5 Z"/></g>
<g><path style="opacity:1" fill="#e4edee" d="M 70.5,11.5 C 94.3484,11.6566 118.182,12.3233 142,13.5C 154.176,13.1256 166.343,12.9589 178.5,13C 200.051,16.8853 212.551,29.7186 216,51.5C 216.906,67.873 216.573,84.2064 215,100.5C 209.636,121.533 196.303,133.867 175,137.5C 155.979,134.163 136.812,132.83 117.5,133.5C 99.5033,132.784 81.6699,134.117 64,137.5C 44.0508,133.889 31.3841,122.222 26,102.5C 26.4451,84.4938 26.4451,66.4938 26,48.5C 32.0678,25.2398 46.9011,12.9065 70.5,11.5 Z"/></g>
<g><path style="opacity:1" fill="#444444" d="M 116.5,41.5 C 136.121,41.6275 142.621,50.9608 136,69.5C 134.027,70.6399 132.193,71.9733 130.5,73.5C 140.993,79.1252 144.826,87.7919 142,99.5C 139.762,106.07 135.262,110.237 128.5,112C 104.936,117.095 95.1022,107.929 99,84.5C 100.738,80.7587 103.238,77.592 106.5,75C 99.4809,69.2296 97.6476,62.0629 101,53.5C 104.304,46.9484 109.471,42.9484 116.5,41.5 Z"/></g>
<g><path style="opacity:1" fill="#e2ebec" d="M 114.5,50.5 C 127.556,48.7069 131.889,53.8736 127.5,66C 121.576,70.5683 115.743,70.4016 110,65.5C 107.074,59.0849 108.574,54.0849 114.5,50.5 Z"/></g>
<g><path style="opacity:1" fill="#e3eced" d="M 118.5,78.5 C 132.346,81.6884 136.013,89.5217 129.5,102C 121.121,105.998 113.621,104.831 107,98.5C 106.133,94.0442 106.466,89.7109 108,85.5C 111.341,82.759 114.841,80.4257 118.5,78.5 Z"/></g>
</svg>
