<?xml version="1.0" encoding="UTF-8"?>
<!DOCTYPE svg PUBLIC "-//W3C//DTD SVG 1.1//EN" "http://www.w3.org/Graphics/SVG/1.1/DTD/svg11.dtd">
<svg xmlns="http://www.w3.org/2000/svg" version="1.1" width="244px" height="179px" style="shape-rendering:geometricPrecision; text-rendering:geometricPrecision; image-rendering:optimizeQuality; fill-rule:evenodd; clip-rule:evenodd" xmlns:xlink="http://www.w3.org/1999/xlink">
<g><path style="opacity:0.106" fill="#000000" d="M 97.5,-0.5 C 108.833,-0.5 120.167,-0.5 131.5,-0.5C 148.347,0.227625 165.347,1.06096 182.5,2C 204.824,3.24341 222.658,12.7434 236,30.5C 238.454,36.6351 240.454,42.9685 242,49.5C 242.667,73.5 242.667,97.5 242,121.5C 237.794,157.886 217.628,176.552 181.5,177.5C 161.422,176.754 141.422,175.754 121.5,174.5C 99.259,176.268 76.9257,176.768 54.5,176C 48.7504,174.626 43.0837,172.959 37.5,171C 18.9131,159.32 7.07977,142.82 2,121.5C 0.462415,98.8567 0.129082,76.1901 1,53.5C 4.04625,29.4222 17.2129,13.2555 40.5,5C 59.5083,1.69862 78.5083,-0.134711 97.5,-0.5 Z"/></g>
<g><path style="opacity:0.993" fill="#414141" d="M 37.5,133.5 C 35.785,131.118 33.785,129.118 31.5,127.5C 26.3914,120.954 22.558,113.62 20,105.5C 18.59,84.6038 18.09,63.7704 18.5,43C 20.8306,22.6654 32.164,10.6654 52.5,7C 97.498,2.7141 142.498,2.7141 187.5,7C 200.958,9.30499 211.792,15.805 220,26.5C 222.66,30.8139 224.327,35.4805 225,40.5C 224.757,62.8136 224.424,85.147 224,107.5C 222.078,120.854 215.912,131.687 205.5,140C 198.167,144.666 190.167,146.499 181.5,145.5C 141.996,141.57 102.496,141.57 63,145.5C 52.9027,144.531 44.4027,140.531 37.5,133.5 Z"/></g>
<g><path style="opacity:1" fill="#e5eeef" d="M 79.5,11.5 C 113.54,10.9582 147.54,11.7916 181.5,14C 198.206,14.7408 210.039,22.5741 217,37.5C 216.243,57.1634 216.41,76.8301 217.5,96.5C 218.489,111.876 213.155,124.376 201.5,134C 198.618,135.608 195.618,136.941 192.5,138C 168.522,137.031 144.522,136.198 120.5,135.5C 101.454,135.595 82.4537,136.595 63.5,138.5C 55.0097,137.422 47.6764,133.922 41.5,128C 27.4431,112.212 22.1097,93.7124 25.5,72.5C 26.1041,60.8038 26.2707,49.1371 26,37.5C 30.8485,24.654 40.0152,16.8207 53.5,14C 62.3649,13.669 71.0316,12.8356 79.5,11.5 Z"/></g>
<g><path style="opacity:1" fill="#434444" d="M 123.5,42.5 C 126.585,42.542 128.919,43.8753 130.5,46.5C 125.553,52.9497 120.053,58.9497 114,64.5C 112.374,67.0583 111.374,69.725 111,72.5C 133.552,65.372 144.218,73.7053 143,97.5C 136.604,113.111 125.437,117.944 109.5,112C 104.503,108.857 101.336,104.357 100,98.5C 97.1002,86.6506 98.4336,75.3173 104,64.5C 109.965,56.7011 116.465,49.3677 123.5,42.5 Z"/></g>
<g><path style="opacity:1" fill="#e3eced" d="M 117.5,78.5 C 134.271,78.6929 138.771,86.3596 131,101.5C 122.661,107.363 115.328,106.363 109,98.5C 107.325,93.2224 107.159,87.889 108.5,82.5C 111.482,80.836 114.482,79.5027 117.5,78.5 Z"/></g>
<g><path style="opacity:0.712" fill="#7b7f7f" d="M 31.5,127.5 C 33.785,129.118 35.785,131.118 37.5,133.5C 34.5222,132.522 32.5222,130.522 31.5,127.5 Z"/></g>
</svg>
