<?xml version="1.0" encoding="UTF-8"?>
<!DOCTYPE svg PUBLIC "-//W3C//DTD SVG 1.1//EN" "http://www.w3.org/Graphics/SVG/1.1/DTD/svg11.dtd">
<svg xmlns="http://www.w3.org/2000/svg" version="1.1" width="244px" height="183px" style="shape-rendering:geometricPrecision; text-rendering:geometricPrecision; image-rendering:optimizeQuality; fill-rule:evenodd; clip-rule:evenodd" xmlns:xlink="http://www.w3.org/1999/xlink">
<g><path style="opacity:0.106" fill="#000000" d="M 243.5,66.5 C 243.5,73.1667 243.5,79.8333 243.5,86.5C 242.371,99.9916 241.538,113.658 241,127.5C 239.391,142.55 233.558,155.717 223.5,167C 217.398,170.553 211.065,173.887 204.5,177C 192.936,179.19 181.269,180.523 169.5,181C 131.809,181.785 94.1423,181.118 56.5,179C 31.5038,177.005 14.0038,164.505 4,141.5C 2.26212,134.772 0.762118,128.106 -0.5,121.5C -0.5,110.167 -0.5,98.8333 -0.5,87.5C 0.330891,75.0066 0.830891,62.34 1,49.5C 3.4933,38.6276 7.82664,28.6276 14,19.5C 20.4501,14.0389 27.6167,9.87219 35.5,7C 64.8467,0.933797 94.5134,-1.0662 124.5,1C 147.121,3.02706 169.787,4.3604 192.5,5C 198.686,7.24782 205.019,9.24782 211.5,11C 215.898,14.3943 220.565,17.3943 225.5,20C 229.273,23.7176 232.44,27.8842 235,32.5C 239.056,43.6375 241.889,54.9708 243.5,66.5 Z"/></g>
<g><path style="opacity:0.991" fill="#414141" d="M 84.5,4.5 C 119.186,5.44591 153.853,6.94591 188.5,9C 212.634,13.4667 224.801,27.9667 225,52.5C 224.572,73.4936 223.906,94.4936 223,115.5C 219.846,132.341 210.013,142.841 193.5,147C 175.371,148.753 157.205,149.919 139,150.5C 110.18,148.981 81.347,147.815 52.5,147C 31.1789,141.345 19.6789,127.511 18,105.5C 17.8205,82.4986 18.1538,59.4986 19,36.5C 21.7073,23.5788 29.2073,14.7454 41.5,10C 55.9361,7.98559 70.2694,6.15225 84.5,4.5 Z"/></g>
<g><path style="opacity:1" fill="#e5edee" d="M 86.5,11.5 C 119.485,13.1651 152.485,14.6651 185.5,16C 196.205,17.5988 205.038,22.4321 212,30.5C 213.608,33.3821 214.941,36.3821 216,39.5C 216.736,47.1963 217.57,54.863 218.5,62.5C 217.031,79.4641 216.198,96.4641 216,113.5C 213.516,126.647 206.016,135.48 193.5,140C 174.033,141.616 154.533,142.449 135,142.5C 107.528,141.146 80.0277,140.313 52.5,140C 38.1507,135.65 29.3173,126.15 26,111.5C 25.0279,85.7708 25.3612,60.1042 27,34.5C 30.0795,26.4195 35.5795,20.5862 43.5,17C 57.9722,15.2879 72.3056,13.4545 86.5,11.5 Z"/></g>
<g><path style="opacity:1" fill="#434444" d="M 113.5,44.5 C 122.71,43.42 130.543,46.0866 137,52.5C 140.639,59.7773 140.306,66.7773 136,73.5C 134.167,74.6667 132.333,75.8333 130.5,77C 142.977,85.8503 144.81,96.6837 136,109.5C 126.26,117.955 115.76,118.788 104.5,112C 100.538,109.066 99.0379,105.233 100,100.5C 101.938,98.0216 104.105,97.8549 106.5,100C 111.893,107.87 118.893,109.537 127.5,105C 132.468,100.689 133.635,95.522 131,89.5C 125.731,83.7232 119.231,80.3898 111.5,79.5C 110.025,76.7546 110.691,74.588 113.5,73C 118.655,71.9621 123.655,70.4621 128.5,68.5C 133.925,59.7242 131.425,54.7242 121,53.5C 118.453,53.7618 115.953,54.2618 113.5,55C 111.194,57.139 108.527,58.639 105.5,59.5C 101.853,58.5139 100.686,56.1806 102,52.5C 105.464,49.1945 109.297,46.5279 113.5,44.5 Z"/></g>
</svg>
