<?xml version="1.0" encoding="UTF-8"?>
<!DOCTYPE svg PUBLIC "-//W3C//DTD SVG 1.1//EN" "http://www.w3.org/Graphics/SVG/1.1/DTD/svg11.dtd">
<svg xmlns="http://www.w3.org/2000/svg" version="1.1" width="244px" height="180px" style="shape-rendering:geometricPrecision; text-rendering:geometricPrecision; image-rendering:optimizeQuality; fill-rule:evenodd; clip-rule:evenodd" xmlns:xlink="http://www.w3.org/1999/xlink">
<g><path style="opacity:0.106" fill="#000000" d="M 243.5,73.5 C 243.5,79.1667 243.5,84.8333 243.5,90.5C 244.359,108.421 241.526,125.754 235,142.5C 231.153,147.53 227.82,152.863 225,158.5C 212.403,170.035 197.569,176.535 180.5,178C 173.321,178.171 166.321,178.671 159.5,179.5C 150.5,179.5 141.5,179.5 132.5,179.5C 116.983,178.63 101.316,177.63 85.5,176.5C 59.5929,180.291 37.7595,172.624 20,153.5C 15.1627,146.496 10.8294,139.163 7,131.5C 5.62579,125.75 3.95913,120.084 2,114.5C -0.50142,92.721 0.165247,71.0544 4,49.5C 6.01561,41.7919 9.01561,34.4586 13,27.5C 17.8333,22.6667 22.6667,17.8333 27.5,13C 43.0292,4.51876 59.6958,0.518756 77.5,1C 108.172,0.56008 138.839,0.893413 169.5,2C 193.184,2.3339 213.351,10.8339 230,27.5C 238.427,41.8293 242.927,57.1627 243.5,73.5 Z"/></g>
<g><path style="opacity:0.992" fill="#414141" d="M 85.5,4.5 C 116.837,5.09538 148.171,5.92872 179.5,7C 212.246,13.3104 227.579,33.1437 225.5,66.5C 224.881,78.8282 224.381,91.1615 224,103.5C 221.954,116.429 216.12,127.262 206.5,136C 201.058,140.054 195.058,143.054 188.5,145C 154.16,148.217 119.827,148.051 85.5,144.5C 65.2839,148.706 48.4506,143.039 35,127.5C 26.1615,117.486 20.8281,105.82 19,92.5C 18.2556,76.8109 18.5889,61.1443 20,45.5C 26.3826,19.4177 42.8826,6.41767 69.5,6.5C 74.9648,5.87626 80.2981,5.2096 85.5,4.5 Z"/></g>
<g><path style="opacity:1" fill="#e5eeef" d="M 75.5,12.5 C 108.507,12.512 141.507,13.012 174.5,14C 208.478,19.4105 222.811,39.2439 217.5,73.5C 217.605,84.2136 217.105,94.8803 216,105.5C 212.161,121.373 202.661,132.207 187.5,138C 171.346,138.89 155.179,139.39 139,139.5C 114.158,138.376 89.3242,137.876 64.5,138C 42.5357,129.69 29.7023,113.857 26,90.5C 25.0024,74.4198 25.6691,58.4198 28,42.5C 36.4104,20.7131 52.2437,10.7131 75.5,12.5 Z"/></g>
<g><path style="opacity:1" fill="#434343" d="M 128.5,42.5 C 131.272,42.22 133.772,42.8866 136,44.5C 136.5,57.4957 136.667,70.4957 136.5,83.5C 139.187,83.3359 141.854,83.5026 144.5,84C 147.167,86.6667 147.167,89.3333 144.5,92C 141.854,92.4974 139.187,92.6641 136.5,92.5C 136.666,99.175 136.5,105.842 136,112.5C 132.907,113.894 130.241,113.227 128,110.5C 127.501,104.509 127.334,98.5092 127.5,92.5C 118.494,92.6664 109.494,92.4998 100.5,92C 98.1868,91.3591 96.5202,90.0257 95.5,88C 103.985,75.5105 112.485,63.0105 121,50.5C 123.028,47.3078 125.528,44.6411 128.5,42.5 Z"/></g>
<g><path style="opacity:1" fill="#8a8e8f" d="M 127.5,83.5 C 127.826,74.6506 127.493,65.9839 126.5,57.5C 126.369,56.6236 126.702,55.9569 127.5,55.5C 128.822,64.9918 128.822,74.3251 127.5,83.5 Z"/></g>
<g><path style="opacity:1" fill="#e4edee" d="M 126.5,57.5 C 127.493,65.9839 127.826,74.6506 127.5,83.5C 121.491,83.6662 115.491,83.4995 109.5,83C 115.389,74.6182 121.055,66.1182 126.5,57.5 Z"/></g>
</svg>
