<?xml version="1.0" encoding="UTF-8"?>
<!DOCTYPE svg PUBLIC "-//W3C//DTD SVG 1.1//EN" "http://www.w3.org/Graphics/SVG/1.1/DTD/svg11.dtd">
<svg xmlns="http://www.w3.org/2000/svg" version="1.1" width="243px" height="178px" style="shape-rendering:geometricPrecision; text-rendering:geometricPrecision; image-rendering:optimizeQuality; fill-rule:evenodd; clip-rule:evenodd" xmlns:xlink="http://www.w3.org/1999/xlink">
<g><path style="opacity:0.106" fill="#000000" d="M 87.5,-0.5 C 96.5,-0.5 105.5,-0.5 114.5,-0.5C 136.02,0.121677 157.687,0.955011 179.5,2C 216.767,8.09496 237.767,29.595 242.5,66.5C 242.5,78.8333 242.5,91.1667 242.5,103.5C 240.946,119.303 236.446,134.303 229,148.5C 220.944,160.456 210.111,168.956 196.5,174C 193.711,174.241 191.044,174.908 188.5,176C 164.996,176.168 141.663,176.668 118.5,177.5C 109.167,177.5 99.8333,177.5 90.5,177.5C 63.941,179.521 40.6077,171.688 20.5,154C 15.8636,147.219 11.3636,140.386 7,133.5C 5.33333,128.167 3.66667,122.833 2,117.5C 1.29031,111.669 0.456977,106.002 -0.5,100.5C -0.5,96.1667 -0.5,91.8333 -0.5,87.5C -2.23407,66.183 2.26593,46.183 13,27.5C 26.1408,11.6792 42.9741,2.84582 63.5,1C 71.6772,0.82923 79.6772,0.32923 87.5,-0.5 Z"/></g>
<g><path style="opacity:0.994" fill="#41403f" d="M 91.5,3.5 C 120.169,4.17893 148.836,5.01226 177.5,6C 203.507,10.0096 219.007,24.843 224,50.5C 223.829,65.8177 223.496,81.1511 223,96.5C 221.211,112.913 214.045,126.413 201.5,137C 193.525,142.436 184.691,145.269 175,145.5C 142.51,145.172 110.01,145.006 77.5,145C 48.5637,143.395 29.3971,128.895 20,101.5C 18.6333,94.7329 17.7999,87.8995 17.5,81C 12.2158,26.1234 36.8824,0.290044 91.5,3.5 Z"/></g>
<g><path style="opacity:1" fill="#e78a6c" d="M 76.5,11.5 C 109.169,11.7902 141.836,12.2902 174.5,13C 195.06,15.3508 208.893,26.1841 216,45.5C 216.667,62.1667 216.667,78.8333 216,95.5C 213.839,111.003 206.672,123.503 194.5,133C 191.052,134.927 187.385,136.261 183.5,137C 144.833,137.667 106.167,137.667 67.5,137C 45.2408,131.074 31.4075,116.907 26,94.5C 25.3333,79.5 25.3333,64.5 26,49.5C 32.3436,22.9991 49.177,10.3324 76.5,11.5 Z"/></g>
<g><path style="opacity:1" fill="#444141" d="M 138.5,61.5 C 142.884,61.3988 145.05,63.3988 145,67.5C 139.017,74.3169 132.851,80.9836 126.5,87.5C 131,93.1667 135.5,98.8333 140,104.5C 143.05,110.154 141.55,112.987 135.5,113C 130.333,106.5 125.167,100 120,93.5C 114.167,99.3333 108.333,105.167 102.5,111C 97.5036,111.664 95.6703,109.498 97,104.5C 103.015,98.6521 108.848,92.6521 114.5,86.5C 110.883,80.2547 106.549,74.588 101.5,69.5C 100.091,66.0347 101.258,63.7014 105,62.5C 106.225,62.8623 107.391,63.3623 108.5,64C 112.963,69.114 117.296,74.2807 121.5,79.5C 127.892,74.11 133.559,68.11 138.5,61.5 Z"/></g>
</svg>
