<?xml version="1.0" encoding="UTF-8"?>
<!DOCTYPE svg PUBLIC "-//W3C//DTD SVG 1.1//EN" "http://www.w3.org/Graphics/SVG/1.1/DTD/svg11.dtd">
<svg xmlns="http://www.w3.org/2000/svg" version="1.1" width="243px" height="178px" style="shape-rendering:geometricPrecision; text-rendering:geometricPrecision; image-rendering:optimizeQuality; fill-rule:evenodd; clip-rule:evenodd" xmlns:xlink="http://www.w3.org/1999/xlink">
<g><path style="opacity:0.1" fill="#000000" d="M 70.5,-0.5 C 80.5,-0.5 90.5,-0.5 100.5,-0.5C 114.144,0.992036 127.977,1.99204 142,2.5C 161.759,0.248949 181.259,1.41562 200.5,6C 225.181,18.1824 238.681,38.0157 241,65.5C 241.667,80.1667 241.667,94.8333 241,109.5C 237.849,140.943 221.682,162.11 192.5,173C 186.184,174.976 179.684,175.809 173,175.5C 164.689,175.677 156.523,174.843 148.5,173C 129.5,172.333 110.5,172.333 91.5,173C 55.4553,183.538 27.622,173.038 8,141.5C 4.92192,134.818 2.58859,127.818 1,120.5C 0.333333,100.167 0.333333,79.8333 1,59.5C 3.6494,40.6944 12.1494,25.1944 26.5,13C 27.8333,12.6667 29.1667,12.3333 30.5,12C 32.305,9.59715 34.6384,7.93048 37.5,7C 48.3143,3.20382 59.3143,0.703819 70.5,-0.5 Z"/></g>
<g><path style="opacity:0.994" fill="#403f3f" d="M 65.5,7.5 C 87.6626,8.51826 109.829,9.51826 132,10.5C 145.831,9.73074 159.664,9.56407 173.5,10C 196.133,16.3058 209.299,31.1391 213,54.5C 213.667,70.1667 213.667,85.8333 213,101.5C 207.743,128.592 191.577,144.259 164.5,148.5C 145.966,145.4 127.299,144.067 108.5,144.5C 88.056,144.557 67.7227,145.724 47.5,148C 26.899,142.399 14.0656,129.232 9,108.5C 8.05927,87.7903 8.3926,67.1236 10,46.5C 19.2817,19.9731 37.7817,6.97306 65.5,7.5 Z"/></g>
<g><path style="opacity:1" fill="#e78a6c" d="M 60.5,15.5 C 84.3484,15.6566 108.182,16.3233 132,17.5C 144.176,17.1256 156.343,16.9589 168.5,17C 190.023,20.8582 202.523,33.6915 206,55.5C 206.906,71.873 206.573,88.2064 205,104.5C 199.627,125.543 186.294,137.876 165,141.5C 145.979,138.163 126.812,136.83 107.5,137.5C 89.5033,136.784 71.6699,138.117 54,141.5C 35.6478,138.491 23.3145,128.157 17,110.5C 16.0462,105.38 15.5462,100.213 15.5,95C 16.4624,80.8341 16.6291,66.6675 16,52.5C 22.0422,29.2695 36.8755,16.9362 60.5,15.5 Z"/></g>
<g><path style="opacity:1" fill="#444141" d="M 130.5,47.5 C 132.722,47.178 134.556,47.8446 136,49.5C 137.363,53.7612 137.696,58.0946 137,62.5C 135.192,64.3959 133.025,64.8959 130.5,64C 129.492,59.9848 126.992,57.8181 123,57.5C 119.447,57.6835 116.281,58.8502 113.5,61C 103.748,69.6707 98.0809,80.504 96.5,93.5C 97.6414,104.482 103.641,109.315 114.5,108C 120.036,105.07 125.37,101.903 130.5,98.5C 134.493,99.2334 135.993,101.567 135,105.5C 125.214,116.521 113.381,119.688 99.5,115C 89.8206,107.981 85.9873,98.4808 88,86.5C 91.8719,69.6395 101.372,57.1395 116.5,49C 121.351,48.8255 126.018,48.3255 130.5,47.5 Z"/></g>
</svg>
