<?xml version="1.0" encoding="UTF-8"?>
<!DOCTYPE svg PUBLIC "-//W3C//DTD SVG 1.1//EN" "http://www.w3.org/Graphics/SVG/1.1/DTD/svg11.dtd">
<svg xmlns="http://www.w3.org/2000/svg" version="1.1" width="999px" height="251px" style="shape-rendering:geometricPrecision; text-rendering:geometricPrecision; image-rendering:optimizeQuality; fill-rule:evenodd; clip-rule:evenodd" xmlns:xlink="http://www.w3.org/1999/xlink">
<g><path style="opacity:0.107" fill="#000000" d="M 330.5,-0.5 C 346.5,-0.5 362.5,-0.5 378.5,-0.5C 416.341,0.779919 454.341,2.11325 492.5,3.5C 543.805,0.874849 595.138,0.0415154 646.5,1C 727.437,7.37171 808.437,8.20504 889.5,3.5C 902.918,2.55169 915.918,4.38503 928.5,9C 967.154,26.3137 989.988,55.8137 997,97.5C 997.169,111.673 997.669,125.673 998.5,139.5C 998.5,143.5 998.5,147.5 998.5,151.5C 996.957,162.402 994.123,173.069 990,183.5C 982.057,198.441 971.557,211.274 958.5,222C 957.167,222.333 955.833,222.667 954.5,223C 949.992,227.412 944.992,231.079 939.5,234C 923.31,241.839 906.144,246.005 888,246.5C 836.214,243.327 784.38,242.161 732.5,243C 717.39,244.077 702.39,245.744 687.5,248C 675.187,248.963 662.854,249.463 650.5,249.5C 611.424,247.229 572.258,245.562 533,244.5C 525.5,244.667 518,244.833 510.5,245C 490.437,247.294 470.437,249.127 450.5,250.5C 434.833,250.5 419.167,250.5 403.5,250.5C 385.568,249.838 367.568,248.671 349.5,247C 293.817,246.618 238.15,245.452 182.5,243.5C 157.809,243.923 133.142,244.923 108.5,246.5C 87.1924,245.558 67.5258,239.725 49.5,229C 40.3063,220.473 31.4729,211.64 23,202.5C 11.128,183.717 3.29469,163.383 -0.5,141.5C -0.5,128.167 -0.5,114.833 -0.5,101.5C 5.4887,57.2918 29.4887,26.7918 71.5,10C 89.6945,4.3122 108.361,1.64553 127.5,2C 168.832,2.49988 210.166,3.33322 251.5,4.5C 260.833,4.33333 270.167,4.16667 279.5,4C 296.592,1.76398 313.592,0.263979 330.5,-0.5 Z"/></g>
<g><path style="opacity:0.997" fill="#414141" d="M 814.5,215.5 C 796.357,213.916 778.024,213.25 759.5,213.5C 741.829,214.16 724.162,214.994 706.5,216C 678.024,220.873 649.357,222.54 620.5,221C 579.542,218.141 538.542,216.807 497.5,217C 470.132,220.777 442.632,222.61 415,222.5C 317.54,218.558 220.04,216.724 122.5,217C 71.0459,224.198 35.2126,204.031 15,156.5C 11.8902,148.395 9.55683,140.062 8,131.5C 7.91936,115.835 8.2527,100.168 9,84.5C 17.0937,52.4003 36.5937,30.2336 67.5,18C 76.5201,14.4116 85.8534,12.0783 95.5,11C 144.178,10.3538 192.844,10.8538 241.5,12.5C 262.6,13.0477 283.6,11.8811 304.5,9C 317.329,8.38425 330.162,7.88425 343,7.5C 389.5,8.84446 436,10.1778 482.5,11.5C 520.164,10.3811 557.83,9.38106 595.5,8.5C 653.474,11.3648 711.474,13.6981 769.5,15.5C 808.886,14.9905 848.219,13.3238 887.5,10.5C 912.378,13.8568 932.878,25.1901 949,44.5C 958.84,56.1803 965.507,69.5136 969,84.5C 969.264,102.842 969.764,121.175 970.5,139.5C 969.668,153.163 965.168,165.496 957,176.5C 937.625,202.021 911.958,216.021 880,218.5C 858.151,217.601 836.318,216.601 814.5,215.5 Z"/></g>
<g><path style="opacity:1" fill="#e5eeef" d="M 306.5,18.5 C 363.186,18.4341 419.853,19.4341 476.5,21.5C 530.823,19.8352 585.156,19.3352 639.5,20C 681.275,23.2805 723.108,25.1138 765,25.5C 807.856,24.7529 850.689,23.5862 893.5,22C 910.559,25.613 925.059,33.7797 937,46.5C 947.693,57.5463 955.026,70.5463 959,85.5C 959.518,105.51 959.851,125.51 960,145.5C 955.772,161.124 947.606,174.291 935.5,185C 922.302,196.1 907.302,203.766 890.5,208C 845.351,206.365 800.184,204.865 755,203.5C 746.167,203.667 737.333,203.833 728.5,204C 706.452,205.897 684.452,208.23 662.5,211C 655.667,211.167 648.833,211.333 642,211.5C 600.676,209.556 559.343,207.89 518,206.5C 506.482,206.59 494.982,207.09 483.5,208C 460.957,211.277 438.291,212.777 415.5,212.5C 332.86,209.352 250.194,207.019 167.5,205.5C 141.47,206.061 115.47,206.895 89.5,208C 60.1369,202.307 39.3036,185.807 27,158.5C 24.466,151.898 22.1326,145.231 20,138.5C 18.9048,129.048 18.4048,119.548 18.5,110C 15.4182,82.1703 24.7515,59.5037 46.5,42C 59.518,31.8754 74.1847,25.2087 90.5,22C 103.648,21.0378 116.815,20.5378 130,20.5C 167.671,21.3858 205.338,22.3858 243,23.5C 264.491,24.1261 285.657,22.4594 306.5,18.5 Z"/></g>
<g><path style="opacity:1" fill="#aab0b1" d="M 759.5,213.5 C 778.024,213.25 796.357,213.916 814.5,215.5C 795.978,215.682 777.645,215.016 759.5,213.5 Z"/></g>
</svg>
